<svg xmlns="http://www.w3.org/2000/svg" width="342" height="343"><path fill="#dfb294" d="M177 4c9.44 1.888 18.133 1.398 27.375-1C218.811-.645 231.103 1.08 245 6l2 2c-.359 3.41-1.436 5.987-3 9l3.402 1.285C255.91 21.586 263.148 24.825 270 31l2.477 1.867c2.726 2.304 4.59 4.66 6.648 7.57l2.008 2.81C286.424 51.05 286.424 51.05 286 56q-1.935.755-3.875 1.5l-2.18.844C278 59 278 59 276 59a371 371 0 0 0 5.563 25.063c6.948 27.323 3.376 52.517-.563 79.937l3.313 1.188c2.637.945 3.636 1.747 5.386 3.992 3.497 7.581 1.86 17.221-.699 24.882-9.768 24.49-9.768 24.49-20 28.938-2.762-.242-2.762-.242-5.687-.875-3.813-.429-5.63-.545-8.93 1.484-2.564 2.376-4.965 4.867-7.383 7.391a237 237 0 0 1-5.625 4.688l-2.54 2.074L236 240l-1.809 1.43c-21.116 16.32-50.062 25.843-76.566 27.132l-2.52.131q-3.053.158-6.105.307l1.465 1.734c2.094 3.09 2.13 5.217 2.039 8.871-.898 4.27-3.615 7.24-6.504 10.395l1.563 2.438c1.842 4.566 1.697 7.842.437 12.562-1.004 1.957-1.004 1.957-2.125 3.75-2.135 2.997-2.135 2.997-1.687 5.813L145 317c.914 3.58 1.178 5.465 0 9a32.48 32.48 0 0 1-19.495 13.6c-2.768.467-5.528.832-8.317 1.15l-3.045.364c-16.81 1.867-33.819 3.125-48.217-7.43C56.686 325.605 52.692 313.635 50 302l-.687-2.937c-1.539-15.073.977-26.467 10.392-38.481 2.887-3.526 5.974-6.858 9.13-10.144 4.18-4.708 5.826-9.042 6.915-15.188l.394-2.163c.758-4.517.972-8.43.192-12.923-.421-2.713-.488-5.357-.523-8.101l-.043-2.778C76 207 76 207 78 205c.648-2.57.648-2.57 1-5l-1.875-.75c-2.644-1.556-3.202-2.326-4.125-5.25-.43-5.413-.419-8.568 3-13l1.57-1.398c2.505-2.808 2.073-6.61 2.239-10.215l.326-5.221q.23-4.107.446-8.216c.144-2.647.31-5.292.478-7.938l.107-2.463c.35-5.374 1.727-8.055 4.834-12.549.823-3.603.823-3.603 1.09-7.504l.43-4.403.205-2.305C89.014 104.547 90.879 90.735 95 77l.597-2.021c3.04-10.014 7.48-19.4 14.278-27.416 2.434-3.202 2.42-5.975 2.563-9.938.304-6.83 2.109-10.531 6.562-15.625l1.941-2.27C136.447 2.968 155.381-2.685 177 4"/><path fill="#23262a" d="M177 4c9.44 1.888 18.133 1.398 27.375-1C218.811-.645 231.103 1.08 245 6l2 2c-.359 3.41-1.436 5.987-3 9l3.402 1.285C255.91 21.586 263.148 24.825 270 31l2.477 1.867c2.726 2.304 4.59 4.66 6.648 7.57l2.008 2.81C286.424 51.05 286.424 51.05 286 56q-1.935.755-3.875 1.5l-2.18.844C278 59 278 59 276 59a371 371 0 0 0 5.563 25.063c6.076 23.893 4.156 45.507.895 69.55A908 908 0 0 0 281 165l-4 1-1-4h-3l-.312 1.875C272 166 272 166 269 168c-.961 2.102-.961 2.102-1.605 4.57l-.791 2.715c-.262.937-.523 1.874-.791 2.84l-.827 2.863A876 876 0 0 0 263 188a109 109 0 0 1-7-1c-3.345-6.69-.575-15.53 1-22.437 2.09-9.323 3.266-17.534.563-26.875-1.949-6.93-2-13.797-2.217-20.943-.27-8.35-1.111-16.484-2.346-24.745l-2.25-.203c-3.585-1.039-4.563-2.566-6.75-5.547-4.139-5.46-4.139-5.46-9-10.25h-3c-1.46 1.535-1.46 1.535-2.687 3.5l-1.325 1.969L227 83c-6.39-.73-9.49-4.348-13.375-9.125-3.294-3.895-5.632-5.06-10.625-5.875v11h-2l-1 4a70 70 0 0 1-6.437-3.5c-2.47-1.54-2.47-1.54-4.961-2.414-2.577-1.076-4.535-2.328-6.79-3.961-3.98-2.731-7.917-4.545-12.453-6.168C167 66 167 66 164.91 64.461c-4.535-2.277-9.212-2.3-14.222-2.648l-3.112-.249q-3.787-.3-7.576-.564l-1-3c-2.398.256-4.792.53-7.187.813l-2.042.212c-4.305.525-7.183 1.58-10.771 3.975h-2v2c-1.645 1.537-3.403 2.883-5.176 4.27-4.44 4.21-5.395 8.635-6.011 14.543l-.249 2.1A502 502 0 0 0 105 91h4v2h5v3l8 1 .25 2.375L123 102c1.828 1.045 1.828 1.045 4 2a92 92 0 0 1 4.25 2.813l2.14 1.457C135 110 135 110 135.235 112.7L135 115c-3.732-.226-5.633-1.373-8.312-3.812-6.254-5.594-11.336-7.685-19.782-7.329L105 104l1 2-2.875.688c-3.259.97-3.259.97-4.25 3.562L98 113l-2.125 2.875C93.65 119.583 93.84 121.755 94 126l-2 3 1 2 2-2c2.726-.475 5.378-.84 8.125-1.125l2.227-.262c13.392-1.485 13.392-1.485 16.898.95C124 131 124 131 124.809 132.789c.926 2.002 1.7 3.576 3.191 5.211 2.34.54 4.542.624 6.938.734 2.062.266 2.062.266 4.125 2.141 1.397 4.66 1.512 9.299.937 14.125l-2 3h-3l-.687-3.562c-1.14-4.683-3.42-7.632-6.313-11.438v-2h-2l-.25 3.188c-1.018 5.177-3.052 7.472-7.125 10.687-3.542 1.518-4.945 1.328-8.625.125-3.427-1.602-6.33-3.297-9-6-1.079-3.057-1.146-5.785-1-9v-4h-2l-.937 1.875L95 142c-3 0-3 0-4.687-1.5L89 139l.07 2.45.055 3.238.07 3.199c-.2 3.178-1.023 5.189-2.195 8.113-.167 2.924-.167 2.924 0 5.938.089 4.518-.344 7.82-2 12.062-.169 2.75-.169 2.75 0 5h2c.077 4.56-.021 8.541-1 13a365 365 0 0 0-.719 7.012C85 201 85 201 84 203h2l1-2 1 3c-6.625 1-6.625 1-10 1l1-5-1.875-.75c-2.644-1.556-3.202-2.326-4.125-5.25-.43-5.413-.419-8.568 3-13l1.57-1.398c2.505-2.808 2.073-6.61 2.239-10.215l.326-5.221q.23-4.107.446-8.216c.144-2.647.31-5.292.478-7.938l.107-2.463c.35-5.374 1.727-8.055 4.834-12.549.823-3.603.823-3.603 1.09-7.504l.43-4.403.205-2.305C89.014 104.547 90.879 90.735 95 77l.597-2.021c3.04-10.014 7.48-19.4 14.278-27.416 2.434-3.202 2.42-5.975 2.563-9.938.304-6.83 2.109-10.531 6.562-15.625l1.941-2.27C136.447 2.968 155.381-2.685 177 4"/><path fill="#ecc0a3" d="M82 206c4.436-.435 6.329-.54 9.875 2.313 2.62 3.314 3.251 5.636 3.258 9.742l.004 2.363-.012 2.457.012 2.434C95.13 229.365 94.88 233.027 94 237a96 96 0 0 0-.125 5.188l-.008 2.605c-.01 2.25-.01 2.25 1.133 4.207 3.03.658 3.03.658 6 1l1 4c9.347.435 19.075-1.254 28-4l1-2c2.593-.592 5.13-1.08 7.75-1.5 4.677-.765 8.882-1.577 13.25-3.5l3.313-.937c3.729-1.005 3.729-1.005 7.355-2.555 4.401-1.669 8.667-2.255 13.332-2.696l2.348-.248c1.883-.197 3.767-.382 5.652-.564.586 1.836.586 1.836 1 4-1.52 2.903-2.81 4.608-5.992 5.656q-2.308.479-4.63.883c-4.464.865-8.648 2.573-12.69 4.649C160 252 160 252 157 252v2h-2v2c-15.264 6.289-15.264 6.289-22.95 8.36-2.158.674-4.057 1.578-6.05 2.64v4l3.395.113q2.209.098 4.417.2l2.237.068c5.41.27 5.41.27 7.92 1.892 1.694 2.838 1.743 5.192 1.648 8.446-1.18 4.36-4.95 6.051-8.617 8.281a505 505 0 0 0-5 4h10c1.481 4.31.538 7.06-1.016 11.133-2.77 5.257-7.1 6.087-12.488 7.805-2.798.921-2.798.921-4.496 4.062v4l-5 1q3.063.04 6.125.063l3.445.035c3.243-.093 6.25-.484 9.43-1.098-2.564 4.615-4.854 8.285-10 10l-1 2q-3.593.08-7.187.125l-2.042.05c-4.06.04-7.121-.375-10.771-2.175v2c-3.98.029-7.958.047-11.937.063l-3.444.025-3.271.01-3.031.016C83 333 83 333 82 332c-2.516-.243-5.03-.384-7.555-.523-2.818-.55-3.786-1.16-5.445-3.477v-3h-3l-1-4h-3v-4h-2q-.72-2.374-1.437-4.75l-.81-2.672c-3.674-12.568-3.674-12.568-1.815-18.64.35-.64.7-1.28 1.062-1.938h-2c-.187-2.25-.187-2.25 0-5l1.5-1.75c1.888-2.339 1.888-2.339 1.25-6.125-.304-7.612 4.477-15.946 9.36-21.543C69 253 69 253 71 253v-2l2.25-1.062c3.497-2.464 4.327-4.88 5.855-8.782C80 239 80 239 82 236c1.984-8.167 2.487-16.636 3-25h-3z"/><path fill="#b98c6d" d="M250 219h6l1 3c-6.806 6.245-13.748 12.277-21 18l-1.809 1.43c-21.116 16.32-50.062 25.843-76.566 27.132l-2.52.131q-3.053.158-6.105.307l1.465 1.734c2.094 3.09 2.13 5.217 2.039 8.871-.898 4.27-3.615 7.24-6.504 10.395l1.563 2.438c1.842 4.566 1.697 7.842.437 12.562-1.004 1.957-1.004 1.957-2.125 3.75-2.135 2.997-2.135 2.997-1.687 5.813L145 317c.914 3.58 1.178 5.465 0 9a32.48 32.48 0 0 1-19.495 13.6c-2.768.467-5.528.832-8.317 1.15l-3.045.364c-16.81 1.867-33.819 3.125-48.217-7.43C56.686 325.605 52.692 313.635 50 302l-.687-2.937C48.366 289.789 48.65 280.809 52 272c1.605-1.84 1.605-1.84 3-3 .125 2.375.125 2.375 0 5l-2 2c-.23 2.98-.331 5.833-.312 8.813l.006 2.59c.097 6.216.937 11.902 2.583 17.913.628 2.33.993 4.478 1.223 6.872L57 315c2.676 2.185 2.676 2.185 5 2l1 4 2-2 1 6h3v3l3 1v2l2.152-.035c.92-.01 1.839-.018 2.785-.027l2.778-.036C82 331 82 331 83 332c1.779.158 3.563.251 5.348.316l3.271.127 3.444.12 3.455.13q4.24.16 8.482.307v-2l15.625 1.563L127 333l1-3 2.313-1.375c3.003-1.816 4.632-3.81 6.687-6.625l-2.012.496c-3.617.61-7.147.612-10.8.567l-2.1-.014q-2.544-.02-5.088-.049c2.139-2.139 3.133-2.427 6-3l-.312-2.312c.312-2.688.312-2.688 2.25-4.375 3.376-1.447 6.556-2.113 10.171-2.688L137 310l1-3 2-1c1.317-3.88 2-6.884 2-11h-11c2.51-3.712 4.89-5.533 8.75-7.625 2.434-1.384 2.434-1.384 4.25-3.375.777-3.776.548-7.201 0-11-1.572-.09-1.572-.09-3.176-.184l-4.137-.253-2.091-.12c-3.068-.192-5.666-.466-8.596-1.443v-4c5.122-3.26 10.176-5.172 15.96-6.988 2.76-.919 5.33-2.005 7.977-3.2 5.004-2.09 9.727-2.215 15.094-2.472 2.84-.325 4.297-.758 6.656-2.278 4.28-2.665 8.384-3.308 13.313-4.062v-2l3-2c.73-2.563.73-2.563 1-5h1v6c10.342-.551 17.28-2.11 25.238-8.89L217 235c3 1 3 1 5 2v-2l3 1a91 91 0 0 0 4-1c2.662-.383 5.328-.688 8-1v-6c3.374-2.603 5.77-3.363 10-3l1-4h2z"/><path fill="#b58869" d="M129.977 54.703c3.883.381 7.397 1.367 11.12 2.5C146.31 58.634 151.658 59.246 157 60l2.867.543c3.101.452 6.118.548 9.248.594 8.297.19 13.521 1.212 19.885 6.863q2.682 2.164 5.375 4.313l2.46 2.05c2.156 1.812 2.156 1.812 5.165 2.637l1-4v6h-2l-1 4a70 70 0 0 1-6.437-3.5c-2.47-1.54-2.47-1.54-4.961-2.414-2.577-1.076-4.535-2.328-6.79-3.961-3.98-2.731-7.917-4.545-12.453-6.168C167 66 167 66 164.91 64.461c-4.535-2.277-9.212-2.3-14.222-2.648l-3.112-.249q-3.787-.3-7.576-.564l-1-3c-2.398.256-4.792.53-7.187.813l-2.042.212c-4.305.525-7.183 1.58-10.771 3.975h-2v2c-1.645 1.537-3.403 2.883-5.176 4.27-4.44 4.21-5.395 8.635-6.011 14.543l-.249 2.1A502 502 0 0 0 105 91h4v2h5v3l8 1 .25 2.375L123 102c1.828 1.045 1.828 1.045 4 2a92 92 0 0 1 4.25 2.813l2.14 1.457C135 110 135 110 135.235 112.7L135 115c-3.732-.226-5.633-1.373-8.312-3.812-6.254-5.594-11.336-7.685-19.782-7.329L105 104l1 2-2.875.688c-3.259.97-3.259.97-4.25 3.562L98 113l-2.125 2.875C93.65 119.583 93.84 121.755 94 126l-2 3 1 2 2-2c2.726-.475 5.378-.84 8.125-1.125l2.227-.262c13.392-1.485 13.392-1.485 16.898.95C124 131 124 131 124.809 132.789c.926 2.002 1.7 3.576 3.191 5.211 2.34.54 4.542.624 6.938.734 2.062.266 2.062.266 4.125 2.141 1.397 4.66 1.512 9.299.937 14.125l-2 3h-3l-.687-3.562c-1.14-4.683-3.42-7.632-6.313-11.438v-2h-2l-.25 3.188c-1.018 5.177-3.052 7.472-7.125 10.687-3.542 1.518-4.945 1.328-8.625.125-3.427-1.602-6.33-3.297-9-6-1.079-3.057-1.146-5.785-1-9v-4h-2l-.937 1.875L95 142c-3 0-3 0-4.687-1.5L89 139l.07 2.45.055 3.238.07 3.199c-.2 3.178-1.023 5.189-2.195 8.113-.167 2.924-.167 2.924 0 5.938.089 4.518-.344 7.82-2 12.062-.169 2.75-.169 2.75 0 5h2c.077 4.56-.021 8.541-1 13a365 365 0 0 0-.719 7.012C85 201 85 201 84 203h2l1-2 1 3c-6.625 1-6.625 1-10 1l1-5-1.875-.75c-2.644-1.556-3.202-2.326-4.125-5.25-.43-5.413-.419-8.568 3-13l1.57-1.397c2.51-2.814 2.095-6.636 2.274-10.251l.167-2.575c.176-2.717.335-5.434.489-8.152q.308-5.356.656-10.71l.124-2.48c.292-4.497.704-7.85 3.72-11.435h3l-.14-3.234c.004-5.807 1.224-11.349 2.39-17.016l.621-3.2c3.43-16.985 10.106-40.764 25.442-50.987L119 58l1.355-1.574c2.861-2.48 5.995-1.818 9.622-1.723"/><path fill="#8b6041" d="M250 219h6l1 3c-6.806 6.245-13.748 12.277-21 18l-1.809 1.43c-21.596 16.69-50.893 25.937-77.941 27.195l-2.902.156-2.77.133-2.518.124C146 269 146 269 144 268c-4.407-.245-7.145-.056-11 2-2.75.125-2.75.125-5 0 .563-1.812.563-1.812 2-4 4.85-2.333 9.768-3.921 14.938-5.375q2.24-.647 4.48-1.297l2.29-.662a866 866 0 0 0 11.042-3.291l1.984-.587c2.853-.878 5.322-1.822 7.887-3.362 2.606-1.562 4.711-2.097 7.691-2.613.884-.16 1.767-.318 2.676-.481L185 248v-2l3-2c.73-2.563.73-2.563 1-5h1v6c10.342-.551 17.28-2.11 25.238-8.89L217 235c3 1 3 1 5 2v-2l3 1a91 91 0 0 0 4-1c2.662-.383 5.328-.688 8-1v-6c3.374-2.603 5.77-3.363 10-3l1-4h2z"/><path fill="#80563f" d="M168 134q3.063.214 6.125.438l3.445.246c3.43.316 3.43.316 6.268.82 3.1.486 6.054.668 9.19.742l3.4.1q3.504.09 7.008.172c8.955.272 15.256 1.134 22.564 6.482l-1 4h-3v2l2 1-1 1a68 68 0 0 1-4.562-.437l-2.504-.31L214 150v2l2.313.875C219 154 219 154 222 156v2l3 1v5l-2-2.062c-2.31-2.304-4.694-4.512-7.125-6.688l-2.008-1.797c-1.909-1.652-1.909-1.652-4.867-2.453l.813 3c.642 4.322-1.042 6.784-3.391 10.3-2.733 3.267-5.347 4.18-9.422 4.7-3.335.077-6.665.058-10 0v-2l-1.812-.75c-2.633-1.504-3.742-2.575-5.188-5.25-.187-3.75-.187-3.75 0-7-2.667 2.49-4.557 4.634-6 8l-5-1v-15h-2v-3h-2v-5h2z"/><path fill="#ab7c5d" d="M273 162h3l1 3 3.688-.312c3.678-.02 4.19.213 7.25 2.687 4.47 5.69 3.803 12.683 3.062 19.625-2.775 11.997-9.701 26.744-19.187 34.875-4.09 1.636-7.563.946-11.813.125l-2.215-.36c-.589-.21-1.178-.422-1.785-.64l-1-3h2l.516-2.055c1.517-5.829 3.318-11.267 5.812-16.754.777-2.534.675-3.756-.328-6.191-1.984-1.284-1.984-1.284-4-2v-2l-3-1c3.133-1.044 3.99-.934 7 0l.813-3.812Q264.4 181.593 265 179l.66-2.977.715-2.96.648-2.778c1.2-2.807 2.239-3.136 4.977-4.285.805-2.05.805-2.05 1-4"/><path fill="#a27759" d="M54 269h1c.125 2.375.125 2.375 0 5l-2 2c-.23 2.98-.331 5.833-.312 8.813l.006 2.59c.097 6.216.937 11.902 2.583 17.913.628 2.33.993 4.478 1.223 6.872L57 315c2.676 2.185 2.676 2.185 5 2l.805 2.555 1.07 3.32 1.055 3.305c1.415 3.73 2.548 4.564 6.132 6.32 8.923 3.593 17.597 3.787 27.057 3.706a791 791 0 0 1 6.535-.02c8.154-.022 16.23-.341 24.346-1.186l1-3 2.125-1.187c3.994-2.518 7.381-5.778 9.875-9.813-.24-2.178-.438-3.438-2-5-2.2.418-4.386.91-6.562 1.438l-3.63.87L127 319l2-3h2v-2c3.367-2.432 4.734-3 9-3l1-3h2q.29-3.437.563-6.875l.316-3.867c.378-3.144.378-3.144-.879-5.258h-5c1.375-1.5 1.375-1.5 3-3h2l.75-1.875C145 285 145 285 147 284.188c2.234-1.036 2.234-1.036 2.828-3.57l.422-2.743c.15-.91.3-1.82.453-2.758L151 273h1c.69 5.517.443 9.045-3 13.563a110 110 0 0 1-3 3.437l1.563 2.438c1.842 4.566 1.697 7.842.437 12.562-1.004 1.957-1.004 1.957-2.125 3.75-2.135 2.997-2.135 2.997-1.687 5.813L145 317c.914 3.58 1.178 5.465 0 9a32.48 32.48 0 0 1-19.495 13.6c-2.768.467-5.528.832-8.317 1.15l-3.045.364c-16.81 1.867-33.819 3.125-48.217-7.43C56.686 325.605 52.692 313.635 50 302l-.687-2.937C48.283 288.978 48.184 277.723 54 269"/><path fill="#948775" d="M120.875 131.938c.701.68 1.403 1.36 2.125 2.062l2.25 1.125C127 136 127 136 128 138c2.031.277 2.031.277 4.375.313 4.348.435 4.348.435 6.688 2.562 1.397 4.66 1.512 9.299.937 14.125l-2 3h-3l-.687-3.562c-1.14-4.683-3.42-7.632-6.313-11.438v-2h-2l-.25 3.188c-1.018 5.177-3.052 7.472-7.125 10.687-3.542 1.518-4.945 1.328-8.625.125-8.187-3.828-8.187-3.828-9.832-8.223-.506-4.039-.309-7.847.832-11.777l-3-1c6.473-5.733 15.401-7.1 22.875-2.062"/><path fill="#c59377" d="M136.367 210.988c3.825 1.47 7.536 1.408 11.598 1.57 6.12.89 10.576 4.403 15.41 8.067l1.652 1.234A148 148 0 0 1 169 225v1l-2.812.813c-3.132.888-3.132.888-4.585 2.728-3.245 2.954-8.241 2.076-12.416 2.084l-3.123.014c-9.157-.201-15.509-2.506-23.064-7.639v-6l-3 1v-4h-2v-3c12.343-3.527 12.343-3.527 18.367-1.012"/><path fill="#e0b193" d="M290 178c.315 14.796-4.208 26.106-13 38-5.12 2.108-10.52 2.528-16 3-.718-7.468 1.439-13.44 5-20 .677-.675 1.354-1.35 2.05-2.047 2.23-2.233 2.904-3.98 3.887-6.953 1.65-4.323 2.889-6.681 7.063-9 7.546-3 7.546-3 11-3"/><path fill="#e4b597" d="m90 204-1 3-7-1v5h3c.263 11.925.412 21.581-6 32l-1.062 2.75c-1 2.4-1.873 3.681-3.938 5.25h-3v2h-2l-1 3-1.89 1.863c-4.038 4.09-6.85 9.962-7.32 15.715q.08 2.28.23 4.559c-.029 2.683-1.278 3.912-3.02 5.863-.714 2.65-.714 2.65-1 5h2c-.095.58-.19 1.16-.29 1.758-.727 5.132-.575 8.334 1.29 13.242 1.18 5.347 2.139 10.51 2 16-4.435-4.149-4.526-7.915-4.727-13.672L55 304l-2-1v-4a1435 1435 0 0 0-1-4c-.215-3.206-.185-6.413-.187-9.625l-.038-2.64-.005-2.524-.013-2.303C52 276 52 276 54 274l.305-3.191c.87-4.763 2.758-7.125 5.82-10.747l1.504-1.856c2.673-3.275 5.46-6.39 8.371-9.456 3.662-4.1 4.928-8.43 6-13.75l.43-2.098c.703-4.316.39-8.18-.153-12.46-.511-4.504-.919-8.936-.277-13.442 3.63-4.098 8.896-3.3 14-3"/><path fill="#a47756" d="M189 239h1v6q2.595-.214 5.188-.437l2.917-.247c2.681-.293 5.261-.743 7.895-1.316-3.927 5.994-7.761 9.552-14 13-4.534 2.559-4.534 2.559-7 7q-2.687.039-5.375.063l-3.023.035C174 263 174 263 172 262l-2 1c-5.984 1.025-11.946 1.096-18 1l-1-3-2.75 1.063c-3.256.939-4.177.892-7.25-.063a3578 3578 0 0 0 9.063-2.79 969 969 0 0 1 8.187-2.483l4.25-1.29 2.03-.598c3.88-1.186 7.013-2.76 10.47-4.839 2.676-.73 2.676-.73 5.313-1.187.883-.16 1.766-.318 2.675-.481L185 248v-2l3-2c.73-2.563.73-2.563 1-5"/><path fill="#c69877" d="m132 172 3 1v3l2-1-2 12c7.527 2.458 13.473 2.458 21 0 .276 1.934.52 3.873.75 5.813l.422 3.269C157 199 157 199 155.266 200.824c-6.702 3.478-15.657 3.221-22.828 1.238-2.36-1.04-3.256-1.759-4.59-3.984-2.396-6.403-2.811-12.326-.535-18.828 1.39-2.679 2.753-4.947 4.687-7.25"/><path fill="#cca082" d="M91 203h3l1 5 4 1v3h2a55 55 0 0 1 0 23l2.375.313C106 236 106 236 108 239c.08 2.332.088 4.668 0 7l4 1v4c1.584-.088 3.168-.196 4.75-.312l2.672-.176c2.634-.327 2.634-.327 4.547-2.012 2.63-1.943 4.545-1.995 7.781-2.187l2.984-.2L137 246l-1 2h-5l-1 3c-9.577 3.13-19.96 4.34-30 4l1-5-6-1-1 2c-2.286-8.01-.895-16.048 1-24h2c.594-9.691.594-9.691-4-18-1.25-3.375-1.25-3.375-2-6"/><path fill="#dbae8f" d="M137 317h5c.703 1.746.703 1.746 1 4-1.328 2.035-1.328 2.035-3.25 4.063l-1.89 2.035L136 329l-1.547 1.684C133 332 133 332 130 333l-1.427 1.52c-5.305 4.991-18.73 2.701-25.822 2.72-2.181.01-4.361.041-6.542.072C86.06 337.389 75.76 336.695 67 331c-3.247-3.897-3.292-7.033-3-12 2 2 2 2 2 6h3v3l3 1v2l2.152-.035c.92-.01 1.839-.018 2.785-.027l2.778-.036C82 331 82 331 83 332c1.779.158 3.563.251 5.348.316l3.271.127 3.444.12 3.455.13q4.24.16 8.482.307v-2l15.625 1.563 2.54.253L127 333l1-3 2.313-1.375c3.003-1.816 4.632-3.81 6.687-6.625l-2.012.496c-3.617.61-7.147.612-10.8.567l-2.1-.014q-2.544-.02-5.088-.049c2.56-2.56 4.204-2.57 7.75-3.125l3.11-.508c3.08-.36 6.042-.432 9.14-.367z"/><path fill="#d3a68a" d="M149 258c-5.476 2.606-10.886 4.687-16.738 6.29-2.237.702-4.198 1.605-6.262 2.71v4l3.395.113q2.209.098 4.417.2l2.237.068c5.41.27 5.41.27 7.92 1.892 1.694 2.838 1.743 5.192 1.648 8.446-1.18 4.36-4.95 6.051-8.617 8.281a505 505 0 0 0-5 4h10c1.481 4.31.538 7.06-1.016 11.133-2.21 4.191-4.964 5.463-9.359 6.992l-2.836 1.008c-2.588.805-5.123 1.392-7.789 1.867l2-3h2v-2c2.456-1.684 4.741-2.912 7.563-3.875 3.157-1.457 4.54-3.245 6.437-6.125v-3l-13-1 2-4 .813-2.14c1.652-2.589 3.277-2.781 6.187-3.61 3.775-1.264 3.775-1.264 6.102-4.281.63-2.452.63-2.452.898-5.969l-2.414-.078c-11.006-.59-11.006-.59-15.586-4.922-1.187-1.937-1.187-1.937-1-4 4.984-6.592 12.264-7.947 19.922-9.766 2.287-.258 3.897.078 6.078.766"/><path fill="#43342a" d="M168 134q3.063.214 6.125.438l3.445.246c3.43.316 3.43.316 6.268.82 3.1.486 6.054.668 9.19.742l3.4.1q3.504.09 7.008.172c8.955.272 15.256 1.134 22.564 6.482l-1 3-2.002-.188a804 804 0 0 0-14.654-1.242c-9.764-.734-19.476-1.574-29.156-3.07l-2.387-.359c-3.545-.581-5.77-1.12-8.801-3.141z"/><path fill="#060302" d="M121.625 132.438C124 135 124 135 124 137h-2l.188 3.188c-.199 4.037-.695 5.696-3.188 8.812-2.676 2.103-4.097 1.998-7.562 1.938C108 150 108 150 106.062 147.813c-1.183-3.132-1.294-5.492-1.062-8.813l7-2v-3c-7.057-.15-7.057-.15-14 1 4.2-4.68 4.2-4.68 7.188-5.875 11.679-.52 11.679-.52 16.437 3.313"/><path fill="#050302" d="M198 146c4.64 2.278 4.64 2.278 6 5 .688 6.999.688 6.999-2.062 11-4.428 3.014-7.664 2.404-12.75 1.5-2.995-2.054-3.422-4.043-4.118-7.523C185 154 185 154 186.375 151.5L188 150l4 1 2-4c-9.208 1.939-9.208 1.939-16 8l-1 2h-2c0-3.05.271-5.187 2.355-7.512 6.124-4.557 13.298-4.541 20.645-3.488"/><path fill="#aa775d" d="M136.367 210.988c2.97 1.141 5.401 1.315 8.57 1.45 9.548.72 14.893 5.596 22.063 11.562-3.09 1.545-5.145.159-8.375-.875-5.502-1.679-10.666-2.527-16.402-2.852-3.942-.334-7.774-.985-11.66-1.71l-2.045-.372c-3.702-.71-7.073-1.658-10.518-3.191v-3c12.343-3.527 12.343-3.527 18.367-1.012"/><path fill="#faccb2" d="M185 237c-.61 3.412-1.449 5.608-4 8-1.784.515-1.784.515-3.95.93-5.364 1.107-10.598 2.56-15.863 4.07-.927.26-1.854.52-2.81.79-.894.254-1.788.51-2.709.773l-2.429.69c-2.273.684-2.273.684-4.343 1.9C147 255 147 255 144 254q-2.495-.524-5-1v-2l2.3-.805 3.012-1.07 2.989-1.055c2.855-1.023 2.855-1.023 5.699-3.07 1.862-.509 3.74-.96 5.625-1.375 4.753-1.13 8.937-2.627 13.344-4.703 4.245-1.927 8.455-3.752 13.031-1.922"/><path fill="#514837" d="m194 147-1 4c-2.076.553-3.844 1-6 1-1.077 2.8-.959 4.191-.312 7.188.987 2.861.987 2.861 3 3.687L192 163l3.438.438c3.817-.078 3.817-.078 6.25-3.375L204 157c2.313-.875 2.313-.875 4-1v-2h2c-.476 5.003-1.933 8.03-5 12-5.61 3.74-11.473 3.114-18 3v-2l-1.812-.75c-2.633-1.504-3.742-2.575-5.188-5.25-.187-3.75-.187-3.75 0-7l-2-1q1.617-1.228 3.25-2.437l1.828-1.372c3.554-2.203 6.81-2.305 10.922-2.191"/><path fill="#d2a483" d="M74 243h1v7l-4 1v2h-2l-1 3-1.89 1.863c-4.038 4.09-6.85 9.962-7.32 15.715q.08 2.28.23 4.559c-.029 2.683-1.278 3.912-3.02 5.863-.714 2.65-.714 2.65-1 5h2c-.095.58-.19 1.16-.29 1.758-.727 5.132-.575 8.334 1.29 13.242 1.18 5.347 2.139 10.51 2 16-4.435-4.149-4.526-7.915-4.727-13.672L55 304l-2-1v-4a1435 1435 0 0 0-1-4c-.215-3.206-.185-6.413-.187-9.625l-.038-2.64-.005-2.524-.013-2.303C52 276 52 276 54 274l.305-3.191c.869-4.762 2.757-7.127 5.82-10.747l1.5-1.838a307 307 0 0 1 10.133-11.77C73.1 245.001 73.1 245.001 74 243"/><path fill="#46392c" d="M112 95c7.523 3.208 17.661 8.715 23 15 .227 2.707.227 2.707 0 5-3.645-.22-5.485-1.268-8.062-3.687-5.266-4.759-12.657-9.546-19.938-9.876-3.183.597-4.613 1.441-7 3.563h-2c.29-3.394 1.023-5.031 3.063-7.812 3.676-2.739 6.54-2.805 10.937-2.188"/><path fill="#b6896a" d="M103 76h1c-.595 11.706-.595 11.706-4 16l3 5-1.937 1.75c-2.045 2.23-2.645 3.324-3.063 6.25l2.563-2c3.902-2.27 5.998-2.512 10.437-2l2 2-8 1 1 2-2.875.688c-3.259.97-3.259.97-4.25 3.562L98 113l-2.125 2.875c-2.219 3.698-1.956 5.9-1.875 10.125l-3 2c.397-8.52.782-16.72 3-25h2l-.125-3.5c.046-8.721 3.403-15.772 7.125-23.5"/><path fill="#8b6145" d="m151 261 1 2c10.65.184 10.65.184 21-2l2 4c-4.398 4.398-12.809 3.349-18.75 3.625l-2.902.156-2.77.133-2.518.124C146 269 146 269 144 268c-4.407-.245-7.145-.056-11 2-2.75.125-2.75.125-5 0 .994-3.201 1.959-3.977 4.938-5.625C138.61 262.189 144.928 261 151 261"/><path fill="#f7f3f2" d="M209 151c5.709.981 9.848 5.357 13.406 9.727C225 164.487 225 164.487 225 167c-9.41 3.629-9.41 3.629-14 2l-1 2-1-3-3-1c.422-2.533.789-4.627 2.063-6.875 1.346-3.051 1.064-5.835.937-9.125"/><path fill="#e3b495" d="M287 166c2 2 2 2 2.125 5.125L289 174l-3.625.25c-6.8.862-11.346 5.44-16.375 9.75-1-1-1-1-1.187-3.687.203-3.6.629-6.055 2.187-9.313 2.875-2.25 2.875-2.25 6-4l1.938-1.312c3.212-1.071 5.812-.41 9.062.312"/><path fill="#7a5439" d="M170 62c6.895-.777 11.114-.024 16.695 4.137L189 68l2.68 2.145a384 384 0 0 1 5.156 4.218C198.99 76.175 198.99 76.175 202 77l1-4v6h-2l-1 4a114 114 0 0 1-8.25-4.437l-2.14-1.247L188 76v-3h-4v-2h-3v-2l-6-2v-2l-5-2z"/><path fill="#906241" d="M129 181c1.109 3.326 1.542 6.53 2 10 8.088 1.606 15.757 2.263 24 2v6c-6.069 2.023-14.237 2.055-20.437.316-2.965-1.54-4.642-3.427-6.563-6.129-1.37-4.367-1.057-8.073 1-12.187"/><path fill="#89715b" d="M80 165h1c1.246 6.484 1.186 12.904 1.185 19.478.003 2.148.02 4.296.04 6.444q.005 2.059.005 4.117l.013 3.756c-.229 3.014-.653 4.68-2.243 7.205l-2-1 1-5-1.875-.75c-2.644-1.556-3.202-2.326-4.125-5.25-.43-5.413-.419-8.568 3-13l1.563-1.219c2.155-2.671 1.957-5.091 2.124-8.469l.2-3.574z"/><path fill="#c09170" d="M290 178c-.139 10.061-.864 18.054-6 27h-1c-.18-3.947-.094-6.598 2-10h2v-7h-2v-3h-7l-.812 2.188c-1.186 2.808-2.585 5.222-4.188 7.812-1.733 2.965-3.464 5.927-5 9s-3.282 6.023-5 9h-2c4.03-13.096 4.03-13.096 7.512-16.46 1.917-1.983 2.48-3.877 3.363-6.477 1.681-4.333 2.936-6.736 7.125-9.063 7.546-3 7.546-3 11-3"/><path fill="#8c5c3a" d="M217 235c3 1 3 1 5 2v-2l3 1q2.004-.485 4-1c2-.038 4-.045 6 0v4h-4l-1 4h-3v2l-2.25.375c-2.551.58-4.477 1.362-6.75 2.625l-1-3h3v-2l-3-1-2-1c-1.893.927-1.893.927-3.875 2.313-2.646 1.755-5.258 3.318-8.125 4.687 3.935-5.038 8.274-9.972 14-13"/><path fill="#ba8e6f" d="m167 135 1 3c2.504 1.219 2.504 1.219 5 2v5l7 1v3l-4 2 .125 3.25c-.114 3.407-.338 4.957-2.125 7.75l-5-1v-15h-2v-3h-2v-5h2z"/><path fill="#b0866a" d="M135.703 55.617q2.719.772 5.422 1.59c6.327 1.745 12.917 2.408 19.414 3.254l3.461.477 3.125.402c3.142.721 5.281 1.758 7.875 3.66v2l6 2v2h3v2h4l1 4c-2.688-1.29-5.148-2.72-7.625-4.375-3.826-2.431-7.73-4.081-11.98-5.633C167 66 167 66 164.906 64.457c-4.533-2.273-9.211-2.295-14.219-2.644l-3.11-.249q-3.788-.3-7.577-.564l-1-3q-4.094.212-8.187.438l-2.33.119c-3.916.218-7.654.53-11.483 1.443 4.864-6.709 11.052-6.13 18.703-4.383"/><path fill="#daac8b" d="M285 184c0 3.505-.57 5.799-2 9-2.625 1.375-2.625 1.375-5 2l.313 2.313L278 200c-2.383 1.819-3.958 3-7 3l-.187 1.688C270 207 270 207 267.625 209.313c-3.077 3.15-4.104 5.605-5.625 9.687h-1v-6h2l.813-2.812c1.157-3.108 1.959-3.96 4.187-6.188l.375-2.312c.876-3.767 3.111-5.806 5.625-8.688 1.192-2.05 1.192-2.05 2-4 2.203-4.819 3.758-5.138 9-5"/><path fill="#af8160" d="M85 159h1c.932 5.67 1.11 9.538-1 15-.169 2.75-.169 2.75 0 5h2c.077 4.56-.021 8.541-1 13a365 365 0 0 0-.719 7.012C85 201 85 201 84 203h2l1-2 1 3h-7v-42l2 3z"/><path fill="#cca48c" d="M203 68c5.075.104 7.326.907 10.938 4.563A146 146 0 0 1 217 76l-2 1-1 2-1.312-1.437c-1.711-1.8-1.711-1.8-4.688-2.563l-1 4h-2l-2 8c-2.727.281-2.727.281-6 0-2.336-1.969-2.336-1.969-4.375-4.5l-2.086-2.531L189 78c4.539 0 7.3 2.534 11 5l1-4h2z"/><path fill="#ba8b68" d="M64 319c2 2 2 2 2 6h3v3l3 1v2l2.313.375c1.927.327 3.856.664 5.761 1.102 9.454 2.04 18.987 1.976 28.614 2.148l5.341.117q6.486.142 12.971.258v1c-8.07 1.053-16.124 1.218-24.25 1.24-2.18.01-4.36.041-6.541.072C86.06 337.389 75.76 336.695 67 331c-3.247-3.897-3.292-7.033-3-12"/><path fill="#f4efe7" d="M126 141h2c1.762 2.266 1.762 2.266 3.688 5.25l1.949 2.953C135 152 135 152 134.832 154.297 134 156 134 156 132 157a190 190 0 0 1-7.625.063l-2.14-.014q-2.617-.02-5.235-.049c1.271-2.795 2.18-4.166 4.5-6.312 3.05-3.278 3.571-5.382 4.5-9.688"/><path fill="#96694b" d="m202 245 2 1c-3.278 4.78-7.113 7.139-12 10-4.532 2.561-4.532 2.561-7 7h-11l-1-4c2.983-2.541 5.135-3.46 9-4l3.813-.562L189 254v-2l3.313-1.312c2.831-1.203 4.604-2.397 6.687-4.688z"/><path fill="#c39883" d="m247 90 6 2c2.395 10.38 3.41 20.368 3.62 31.016.135 5.39.706 9.862 2.38 14.984.125 2.938.125 2.938 0 5l-1-4-4 2-2-3a605 605 0 0 1 2-5c.474-3.323.753-6.653 1-10h-2l.07-3.184c.19-11.05.19-11.05-2.07-21.816q-1.485-1.515-3-3c-.687-2.687-.687-2.687-1-5"/><path fill="#d7aa8c" d="M156 187c.276 1.934.52 3.873.75 5.813l.422 3.269C157 199 157 199 155.266 200.824c-6.177 3.206-14.173 3.25-20.828 1.504-1.844-.698-3.648-1.502-5.438-2.328v-5l3.406 1.984c4.78 2.39 8.836 2.489 14.094 2.266l2.492-.055c2.003-.046 4.006-.118 6.008-.195v-6l-1.941.105c-5.893.185-9.826-.375-15.059-3.105 2.62-.838 4.585-.99 7.375-.937 3.771-.066 7.084-2.063 10.625-2.063"/><path fill="#93664a" d="M100 219h1c.113 6.076-.307 11.964-1 18h4l1 8h2v2h2v3l2 1c-2.687.75-2.687.75-6 1-3.412-2.142-5.857-4.603-8-8-.997-6.804.275-13.429 2-20 .34-1.665.677-3.331 1-5"/><path fill="#a07355" d="M289 170c2.483 2.483 2.26 3.967 2.273 7.361l-.023 2.077.023 2.064c-.014 3.712-.164 5.334-2.273 8.498l1-12-3 2a97 97 0 0 1-4.437 1.438c-3.392 1.078-5.814 2.253-8.563 4.562h-2l-1 3c-.75-1.625-.75-1.625-1-4 2.742-4.798 5.651-9.12 11-11 2.691-.16 5.3-.09 8 0z"/><path fill="#ca9c7f" d="M91 203h3l1 5 4 1v3h2c1.225 5.666 1.092 11.237 1 17h-1l-1-5c-3.577 9.781-3.577 9.781-4 20l2 2c-.375 2.125-.375 2.125-1 4l-2-1-1 2c-2.286-8.01-.895-16.048 1-24h2c.594-9.691.594-9.691-4-18-1.25-3.375-1.25-3.375-2-6"/><path fill="#b28466" d="M142 291c1.5 1.063 1.5 1.063 3 3 .511 5.315.187 11.273-3.281 15.598-2.056 1.677-3.875 2.32-6.406 3.09-.809.25-1.617.502-2.45.761L131 314v2l-2 2 12-3v2h-4v2c-4.763.953-9.167 1.083-14 1-.312-2.312-.312-2.312 0-5 3.552-3.093 7.592-3.657 12.11-4.375L137 310l1-3 2-1c1.317-3.88 2-6.884 2-11l-2-2h2z"/><path fill="#e3c3ab" d="M178 154h2l.297 1.793c.984 5.2 2.214 8.117 5.703 12.207l-1 3h-8v-2l-6 2v-2h2l-.562-1.875C172 165 172 165 173 163h2l-.187-2.25c.22-3.225.97-4.447 3.187-6.75"/><path fill="#503f30" d="m73 337 2.24.214c8.59.75 17.103.941 25.718.916q3.355-.005 6.712.007c7.502.003 14.874-.208 22.33-1.137-2.37 2.37-3.308 2.402-6.559 2.852l-2.83.392C88.547 344.252 88.547 344.252 73 338z"/><path fill="#161b20" d="m258 171 1.375 1.5c1.501 1.726 1.501 1.726 3.625 1.5l1-3h3c-.55 6.048-1.904 11.306-4 17l-7-1-1-6 2-1v-3l2-1z"/><path fill="#1b0c08" d="M206 67c6.055-.195 6.055-.195 8 0l2 2h3l-1 5 2 1v2l3-2c2.262-.195 2.262-.195 4.688-.125l2.449.055L232 75c-1.613 2.712-3.249 5.374-5 8-7.207-.824-10.869-5.821-15.254-11.098-1.77-1.928-3.608-3.4-5.746-4.902"/><path fill="#d4a688" d="M129 294h13c1.133 5.667 1.133 5.667-.25 9.125l-.766 2.008c-2.21 4.191-4.964 5.463-9.359 6.992l-2.836 1.008c-2.588.805-5.123 1.392-7.789 1.867l2-3h2v-2c2.456-1.684 4.741-2.912 7.563-3.875 3.157-1.457 4.54-3.245 6.437-6.125v-3l-10-1z"/><path fill="#e7baa0" d="M186 235c1.4 2.799 1.253 4.905 1 8-1.062 1.813-1.062 1.813-3 3-3.687.688-3.687.688-7 1v2q-3.654 1.006-7.312 2l-2.092.578c-2.954.8-5.522 1.422-8.596 1.422v2l-4-1h2v-2c7.043-3.421 14.365-6.214 22-8l2 1c1.414-2.639 2.372-5.071 3-8h-7c3.435-2.29 4.985-2.178 9-2"/><path fill="#917059" d="M54 269h1c.125 2.375.125 2.375 0 5l-2 2c-.23 2.98-.33 5.833-.312 8.813l.003 2.59c.094 6.23 1.002 11.882 2.641 17.906.837 3.37.909 6.243.668 9.691-1.765-3.088-2-4.233-2-8h-3c-2.67-12.109-3.05-23.128 1-35z"/><path fill="#b38769" d="M129 139c2.854-.234 5.203-.408 8 0 2.601 2.358 2.932 4.237 3.238 7.676.193 7.677.193 7.677-2.238 11.324h-3l-.55-2.703c-.252-1.17-.504-2.341-.762-3.547l-.739-3.516c-.915-3.117-1.927-4.764-3.949-7.234z"/><path fill="#e2b696" d="m284 187 4 1-1 7h-2l-.227 2.52c-.395 3.268-.844 6.319-1.773 9.48-3.125 2.25-3.125 2.25-6 3v-3h2v-2l-4-1 1.5-2.25c1.82-2.813 1.82-2.813 1.5-6.75h2l1-2 2-1c.656-2.527.656-2.527 1-5"/><path fill="#957257" d="M151 273h1c.69 5.517.443 9.045-3 13.563a110 110 0 0 1-3 3.437l1.563 2.438c1.824 4.521 1.451 7.866.437 12.562l-1 2c-2.062.625-2.062.625-4 1l.254-2.992.309-3.883.316-3.867c.378-3.144.378-3.144-.879-5.258h-5c1.375-1.5 1.375-1.5 3-3h2l.75-1.875C145 285 145 285 147 284.188c2.234-1.036 2.234-1.036 2.828-3.57l.422-2.743c.15-.91.3-1.82.453-2.758z"/><path fill="#bb8f71" d="m185 234 6 2 1 6h-2l-1.5 2-1.5 2h-2v2l-1.941.516c-4.197 1.175-7.97 2.25-11.621 4.672-4.34 2.287-7.643 2.203-12.438 1.812v-2a1371 1371 0 0 1 6.75-2l3.797-1.125C173 249 173 249 177 249v-2l9-2 .063-3.812.035-2.145c-.015-2.246-.015-2.246-1.098-5.043m9 4 2 1-3 3c0-3 0-3 1-4"/><path fill="#5b4b40" d="M190 137c3.687-.059 7.375-.094 11.063-.125 1.038-.017 2.076-.034 3.146-.05 5.657-.037 10.49.118 15.791 2.175l2 2c-3.329 2.22-4.488 2.271-8.375 2.25l-2.836.016c-2.932-.28-5.123-1.045-7.789-2.266v-1l-13-2z"/><path fill="#946f55" d="M52 307h2l1 8c3.386 1.51 3.386 1.51 7 2l.77 2.52 1.042 3.293 1.02 3.269c1.115 2.787 2.007 3.955 4.168 5.918v2l4 1v2c-8.86-2.867-12.918-9.065-17-17-4-8.74-4-8.74-4-13"/><path fill="#a77f69" d="M273 162h3l1 5c-4.75 4-4.75 4-7 4l-1 12 3-1c-1.015 2.536-1.685 3.794-4 5.313l-2 .687-2-1a97 97 0 0 1 2.313-13.875l.675-2.805c1.231-2.822 2.25-3.164 5.012-4.32.805-2.05.805-2.05 1-4"/><path fill="#ab8367" d="M211 145c4.833-.083 9.237.047 14 1l-3 1v2l2 1-1 1a68 68 0 0 1-4.562-.437l-2.504-.31L214 150v2l2.313.875C219 154 219 154 222 156v2l3 1v5l-2-2.062c-2.957-2.975-6.13-5.676-9.328-8.387C212 152 212 152 211 150a129 129 0 0 0-7-2c3.073-.91 5.801-1.089 9-1z"/><path fill="#a27b60" d="m262 203 1 2-1 3a166 166 0 0 0-.562 5.688l-.254 3.011L261 219l1.793-.437c4.132-.971 7.93-1.839 12.207-1.563-1 3-1 3-3 4.75-4.21 1.754-7.603 1.1-12 .25l-2.215-.36c-.589-.21-1.178-.422-1.785-.64l-1-3h2l.586-2.266.789-2.984.773-2.953A34.6 34.6 0 0 1 262 203"/><path fill="#190d09" d="M121.625 132.438C124 135 124 135 124 137h-2v7h-1v-8h-8l-1-2c-7.057-.15-7.057-.15-14 1 4.2-4.68 4.2-4.68 7.188-5.875 11.679-.52 11.679-.52 16.437 3.313"/><path fill="#a4816c" d="M122.438 128.75c1.506 2.17 2.192 3.657 2.562 6.25a56.5 56.5 0 0 1-7-4c-6.149-1.333-11.018-.994-17 1-2.937.125-2.937.125-5 0v2h-3l-1 4h-2c-.125-3.375-.125-3.375 0-7l2-2 1 2 2-2c2.726-.475 5.378-.84 8.125-1.125l2.227-.262c13.428-1.49 13.428-1.49 17.085 1.137"/><path fill="#ba8f7b" d="M232 75c1.938.375 1.938.375 4 1l1 2h-2l-.812 2.813c-1.74 4.667-1.74 4.667-4.188 6.187-3.61.394-6.07.44-9.375-1.125-2.172-2.506-2.336-4.626-2.625-7.875l2.25 1.938c2.461 1.845 3.785 2.623 6.75 3.062l.813-1.75c1.204-2.283 2.595-4.224 4.187-6.25"/><path fill="#201813" d="M93 84h1c1.25 7.625 1.25 7.625-1 11-.17 2.158-.17 2.158-.004 4.523.112 5.575-.785 10.665-1.933 16.102C89.808 121.744 88.688 127.789 88 134l-2-1q.758-7.094 1.544-14.185.264-2.402.52-4.805C89.153 103.835 90.612 93.966 93 84"/><path fill="#d1a383" d="m179 235-1.605.519c-2.404.78-4.806 1.568-7.208 2.356l-2.525.816-2.432.801-2.237.73c-2.256.799-2.256.799-4.993 2.778-2.073.502-4.15.994-6.238 1.426-3.287.683-6.554 1.44-9.824 2.199-1.126.26-2.251.52-3.41.79L136 248l1-3c2.188-.844 2.188-.844 5-1.5 3.412-.845 6.749-1.702 10.063-2.875 4.709-1.598 9.471-3 14.25-4.375l2.392-.712 2.283-.647 2.048-.593c2.26-.343 3.803.016 5.964.702"/><path fill="#a88267" d="M103 76h1c-.595 11.706-.595 11.706-4 16l3 5-1.937 1.75c-2.045 2.23-2.645 3.324-3.063 6.25l2 1-3 1c-1.544-12.516.576-19.738 6-31"/><path fill="#9c735a" d="M148 269c3 2 3 2 3.469 3.988.057 4.269.08 6.322-2.656 9.762L146 285l-2.75 2.75L140 291h2v2c-7.429 2.429-7.429 2.429-11 1 5.515-4.708 5.515-4.708 7.816-6.094 5.538-3.349 7.621-7.693 9.184-13.906.131-2.709.131-2.709 0-5"/><path fill="#949492" d="m76 181 4 1-1 17c-4-1-4-1-5.25-2.562-1.504-4.888-1.504-8.93.75-13.438z"/><path fill="#45392d" d="M168 134c8.665.405 16.658 1.61 25 4-3.104 2.07-3.819 2.255-7.344 2.266l-2.527.007-2.629-.023-2.629.023-2.527-.007-2.307-.007C171 140 171 140 168 138z"/><path fill="#534133" d="M122 101c3.206 1.803 6.285 3.788 9.313 5.875l2.113 1.43C135 110 135 110 135.23 112.695L135 115c-4.708-.285-6.898-2.47-10.219-5.5-2.376-2-4.949-3.257-7.781-4.5l2-1 3 1z"/><path fill="#ae8163" d="M189 239h1v6q2.595-.214 5.188-.437l2.917-.247c2.681-.293 5.261-.743 7.895-1.316-1.398 2.797-3.436 3.088-6.223 4.2-1.954.796-1.954.796-4.027 2.55L194 251l-3-1c-2.143.39-2.143.39-4 1v2h-6v-2l2.938-1.437c2.867-1.265 2.867-1.265 4.062-2.563l-3-1 3-2c.73-2.563.73-2.563 1-5"/><path fill="#93715a" d="M96 91c1.187 4.365.67 7.533 0 12h-2l-.212 2.675q-.405 4.936-.85 9.868-.187 2.13-.355 4.262c-.162 2.05-.347 4.097-.536 6.144l-.318 3.73c-.82 3.734-2.137 5.562-4.729 8.321v-3l-2-1h3l-.145-3.227c.004-5.853 1.269-11.44 2.457-17.148l.647-3.25C92.299 103.795 93.941 97.392 96 91"/><path fill="#644b37" d="m246 228 3 1c-22.41 21-22.41 21-30 21l2-5h6v-2h3l1-4h4v-4c5-4 5-4 9-4v-2z"/><path fill="#635b51" d="M208 154h2c-.476 5.003-1.933 8.03-5 12-3.445 2.296-5.938 2.54-10 3 1.422-3.132 3.136-5.581 5.375-8.187l1.773-2.106c1.987-1.831 3.214-2.318 5.852-2.707z"/><path fill="#cb9e7e" d="m142 142 4 2-1 3 .125 2.25c-.171 3.77-1.522 6.344-3.125 9.75l-2-1-2 3c-3.125.688-3.125.688-6 1v-3h2l1-4v3l3-1c1.41-2.82 1.376-5.594 1.621-8.71.401-2.426 1.178-4.16 2.379-6.29"/><path fill="#c1926f" d="m89 139 3 1v2l2 1c1.231 3.693 1.595 7.16 1 11-2 2.5-2 2.5-4 4-2.45-3.742-2.23-7.442-2.125-11.75l.027-2.113c.024-1.713.06-3.425.098-5.137"/><path fill="#97755d" d="M76 207h1v6h3q.08 4.343.125 8.688l.05 2.474c.037 4.467-.214 7.739-2.175 11.838-.381 2.326-.725 4.66-1 7h-2l.438-3.5.269-2.223c.267-2.077.59-4.146.918-6.214.464-3.666.13-6.964-.367-10.61-.47-4.472-.334-8.962-.258-13.453"/><path fill="#b1907a" d="M290 178c-.139 10.061-.864 18.054-6 27h-1c-.18-3.947-.094-6.598 2-10h2v-7h-2v-6l-8 2c2.215-3.322 2.861-3.571 6.5-4.687l2.406-.762C288 178 288 178 290 178"/><path fill="#140e0c" d="M171 59h3v2c2.763-.523 5.326-1.109 8-2l3 2v2h2v2h4c1.75 2 1.75 2 3 4l2-2 2 2-1 2a140 140 0 0 0-1 4l-1.723-1.61C185.001 64.905 179.78 62.385 167 62l4-1z"/><path fill="#7f583a" d="M170 62c6.986-.506 11.202-.033 17 4v6l-6-1v-2l-6-2v-2l-5-2z"/><path fill="#936951" d="m146 307-1 2.188c-1.006 2.829-1.17 4.841-1 7.812h-3l-1-1c-2.2.418-4.386.91-6.562 1.438l-3.63.87L127 319l2-3h2v-2c3.367-2.432 4.734-3 9-3l1-3c3-1 3-1 5-1"/><path fill="#a27f67" d="M258 155h1c.155 4.332-.36 7.891-1.5 12.063-1.65 6.727-1.805 13.043-1.5 19.937l-5 1v-9h1q.543-1.935 1.063-3.875l.597-2.18c.551-2.018.551-2.018-.66-3.945.65-1.673 1.32-3.339 2-5l.5-3.125C256 158 256 158 258 155"/><path fill="#cb9c7e" d="M76 331c2-.043 4-.04 6 0l1 1a68 68 0 0 0 4.336.297l2.79.121 3.034.117 3.09.13q4.906.204 9.813.397l6.634.276q8.151.339 16.303.662v1q-8.242.075-16.486.11-2.798.015-5.594.04c-21.91.2-21.91.2-28.92-2.15z"/><path fill="#a0806f" d="M74 243h1v7l-4 1v2h-2l-1 3-4 4c-1.235 2.133-1.235 2.133-2 4h-2v2c-1.375 1.625-1.375 1.625-3 3h-2c1.465-4.592 4.107-7.765 7.25-11.312 3.257-3.75 6.439-7.49 9.375-11.5z"/><path fill="#eacab2" d="m208 160 1 4 14 1 1-2 1 4c-9.41 3.629-9.41 3.629-14 2l-1 2-1-3-3-1c.875-4.75.875-4.75 2-7"/><path fill="#563c2b" d="M150 265q2.2.282 4.402.535l2.256.264 2.28.264 2.36.275L167 267v1a2488 2488 0 0 1-10.375.563l-2.984.17-2.852.146-2.634.143C146 269 146 269 144 268c-4.347-.242-7.22-.16-11 2h-3l1-3c2.477-.984 2.477-.984 5.625-1.75l3.102-.797c3.716-.514 6.582-.103 10.273.547"/><path fill="#4c4231" d="m107.688 132.938 2.449.027L112 133l1 4-7 2-1 5-1-3-4 1v-8c2.882-.96 4.699-1.106 7.688-1.062"/><path fill="#c3997c" d="M235 78c4.248.472 6.2 2.967 9 6l-1 2-2.312-.125c-2.915-.096-2.915-.096-5.688 2.125-2.715.667-5.18.821-8 1l-2-2 7-1 .938-2.875C234 80 234 80 235 78"/><path fill="#9a735c" d="M170 141h3v4l7 1v3l-4 2 .125 3.375C176 158 176 158 174 160l-.312-3.687c-.454-3.793-1.71-6.046-3.688-9.313-.187-3.312-.187-3.312 0-6"/><path fill="#cea07e" d="M275 194v7l-1.937.75L271 203l-.437 1.813C270 207 270 207 267.625 209.313c-3.077 3.15-4.104 5.605-5.625 9.687h-1v-6h2l.813-2.812c1.157-3.108 1.959-3.96 4.187-6.188l.375-2.375c.672-2.823 3.228-7.625 6.625-7.625"/><path fill="#d8a98c" d="m77 206 1 2 3 1c3.402 4.88 2.455 11.348 2 17-.756 3.189-1.76 5.952-3 9-.853-2.907-1.073-5.31-.879-8.328l.147-2.422.17-2.5.158-2.547q.195-3.102.404-6.203h-3z"/><path fill="#534a3e" d="M124 135c3.914 1.305 4.578 2.987 6.75 6.438l1.922 2.996L134 147l-1 2c-5-5.75-5-5.75-5-8h-2v3h-2v3l-5 1 .938-1.562c1.353-3.105 1.676-6.09 2.062-9.438h2z"/><path fill="#3c301f" d="m194 147-1 4c-2.076.553-3.844 1-6 1l-2 3h-3l-1 4-.375-2.437L180 154l-2-1q1.617-1.228 3.25-2.437l1.828-1.372c3.554-2.203 6.81-2.305 10.922-2.191"/><path fill="#b88a69" d="M132 177c1.6 3.2.032 5.723-1 9h2v2l2.063.313c3.523.824 6.615 2.263 9.937 3.687 2.779.691 2.779.691 5 1v1a725 725 0 0 1-6.125-.375c-1.137-.07-2.274-.14-3.445-.21-8.228-.994-8.228-.994-10.805-4.04-.955-3.63-.928-6.613-.625-10.375z"/><path fill="#ad8365" d="M146.375 267.688C148 269 148 269 148.75 271.625L149 274h-4v-2l-13-1c3.388-5.082 8.76-4.938 14.375-3.312"/><path fill="#926446" d="M180 251c-2.863 2.863-6.38 4.034-10.062 5.563l-2.202.958c-5.292 2.204-10.017 3.065-15.736 3.479l2-1v-2l3.36-1.023 4.39-1.352 2.21-.672c2.897-.895 5.636-1.751 8.352-3.11 2.537-1.267 4.906-.97 7.688-.843"/><path fill="#a6795b" d="M100 227h1v8l2.375.313C106 236 106 236 108 239c.08 2.332.088 4.668 0 7l4 1 1 5h-5l1-5h-2v-2h-2l-1-8h-4c-1.238-3.576-.75-6.337 0-10"/><path fill="#9a775f" d="M255 108h1l.06 2c.096 3.021.205 6.042.315 9.063.03 1.038.062 2.076.094 3.146.214 5.626.77 10.449 2.531 15.791.125 2.938.125 2.938 0 5l-1-4-4 2-2-3a101 101 0 0 1 2-5c.361-2.896.361-2.896.414-5.957l.117-3.37.094-3.486.117-3.544q.141-4.321.258-8.643"/><path fill="#1b1f25" d="m204 51 2 1q-.214 2.595-.437 5.188l-.247 2.917c-.293 2.689-.74 5.254-1.316 7.895l-.535 2.457-.528 2.356-.535 2.394L202 77l-4-1 2-1v-6h2l-.555-2.11c-.51-3.306-.16-5.854.43-9.14l.555-3.203C203 52 203 52 204 51"/><path fill="#9e704e" d="M129 181c1.109 3.326 1.542 6.53 2 10 8.088 1.606 15.757 2.263 24 2v6l-3-1 1-3-2.71.14c-7.646.229-14.753.3-21.29-4.14-1.75-3-1.75-3-2-6 .875-2.375.875-2.375 2-4"/><path fill="#cea07f" d="m156 187 1 11h-2v-5l-1.941.105c-5.893.185-9.826-.375-15.059-3.105 2.62-.838 4.585-.99 7.375-.937 3.771-.066 7.084-2.063 10.625-2.063"/><path fill="#c09272" d="M91 203h3l1 5 4 1v3h2c1.225 5.666 1.092 11.237 1 17h-1l-1-5h-1l-.125-3.5c-.54-4.618-2.61-7.154-5.508-10.668-1.648-2.209-2.196-4.088-2.367-6.832"/><path fill="#e9bd9d" d="m279 168-1 5-3 1c-.733 2.015-.733 2.015-1 4l-4 1c-.433-5.287-.433-5.287 0-8 3.196-2.84 4.675-3 9-3"/><path fill="#16130e" d="M235 75h4v2h2v2h2a141 141 0 0 1 5 5l2 2a126 126 0 0 1 2 6c-2.909-.343-3.915-.91-5.965-3.074l-1.972-2.614-2.09-2.722L240 81a506 506 0 0 0-5-6"/><path fill="#a77958" d="M217 235c3 1 3 1 5 3-1.868 2.387-2.756 2.962-5.812 3.438-3.866.682-6.023 2.291-9.188 4.562a142 142 0 0 1-4 2c3.935-5.038 8.274-9.972 14-13m5 0 2 1-2 1z"/><path fill="#b59885" d="M283.563 165.25C287 166 287 166 289 168c.125 3.125.125 3.125 0 6-7.625 1-7.625 1-11 1 2-3 2-3 4.625-3.687L285 171l-1-3-7-1c3-2 3-2 6.563-1.75"/><path fill="#8a6850" d="M138.188 56 142 57v1l-1.757.076q-3.965.176-7.93.361l-2.764.12-2.686.127-2.46.11c-2.524.216-4.929.665-7.403 1.206 5.365-7.4 13.004-5.771 21.188-4"/><path fill="#664a35" d="M186 259h12c-3.051 3.051-6.783 3.564-10.875 4.688l-2.473.72-2.394.666-2.183.612c-2.318.35-3.86.026-6.075-.686l1-2h10z"/><path fill="#ddb195" d="M182 246v1h-5v2q-3.654 1.006-7.312 2l-2.092.578c-2.954.8-5.522 1.422-8.596 1.422v2l-4-1h2v-2c8.231-4.009 15.797-6.392 25-6"/><path fill="#311a10" d="m198 146 1 2-1.941-.105c-7.08-.222-11.909.37-17.434 5.167-1.676 1.847-1.676 1.847-2.625 3.938h-2c0-3.05.271-5.187 2.355-7.512 6.288-4.679 13.13-3.963 20.645-3.488"/><path fill="#725d4d" d="M144 317c2 3 2 3 2.063 5.688-1.708 5.322-5.214 9.654-10.083 12.488-1.917.824-1.917.824-4.98 1.824v-3h4v-2l4-1v-4h2z"/><path fill="#51422f" d="M104 141c4 6.75 4 6.75 4 9l2 1c-2.915.89-4.42 1.258-7.25 0-2.46-2.812-2.475-5.35-2.75-9 2-1 2-1 4-1"/><path fill="#e2b597" d="M129 252c-4.975 1.935-9.941 2.689-15.195 3.438-2.638.528-4.434 1.361-6.805 2.562-2.332.078-4.668.09-7 0v-3a3569 3569 0 0 1 13.375-2.062l3.852-.604 3.671-.557 3.396-.523C127 251 127 251 129 252"/><path fill="#b59176" d="M131 58v1l-3.187.313c-3.716.67-5.713 1.65-8.813 3.687h-2v2a125 125 0 0 1-6 4c1.75-6.75 1.75-6.75 4-9 5.435-1.996 10.244-2.235 16-2m-22 11 2 1-2 1z"/><path fill="#1a100b" d="m123 52 3.813-.062 2.144-.036C131 52 131 52 134 53v2h12l1 3c-8.347-.894-16.672-1.948-25-3z"/><path fill="#e7e5df" d="M178 154h2l1 12c-4-1-4-1-6-3-.41-3.114-.243-4.592 1.375-7.312z"/><path fill="#4a3b2d" d="M200 147c1.814.28 3.626.575 5.438.875l3.058.492L211 149l1 2h-3l1 3h-2v2l-4 1-1.367-6.055c-.538-2.152-.538-2.152-2.633-3.945"/><path fill="#d5d0c5" d="m101 135-1 14-1-2h-3c-.812-3.187-.812-3.187-1-7 4.043-5 4.043-5 6-5"/><path fill="#7a5941" d="M73 337q3.188.212 6.375.438l3.586.246C86 338 86 338 88 339c2.713.232 5.408.42 8.125.563l2.285.13q2.795.158 5.59.307v1c-3.667.088-7.333.14-11 .188l-3.121.076c-6.38.06-11.064-.601-16.879-3.264z"/><path fill="#be8e6e" d="M54 299c1.938 1.063 1.938 1.063 4 3 .688 3.313.688 3.313 1 7l.563 3.125c.407 2.68.517 5.17.437 7.875-4.435-4.149-4.526-7.915-4.727-13.672L55 304l-2-1z"/><path fill="#624838" d="M151 273h1c.518 4.14.841 7.605-1.371 11.273a89 89 0 0 1-3.414 4L146 290l1 3h-2l-1-2-6 1c1.375-1.5 1.375-1.5 3-3h2l.75-1.875C145 285 145 285 147 284.188c2.234-1.036 2.234-1.036 2.828-3.57l.422-2.743c.15-.91.3-1.82.453-2.758z"/><path fill="#cda182" d="M149 258c-5.509 2.621-10.942 4.699-16.836 6.29-2.419.687-2.419.687-5.164 2.71l2-4h2v-2c5.589-2.524 11.971-4.928 18-3"/><path fill="#bc9071" d="m131 313-1.937 1.313c-2.33 1.6-2.33 1.6-3.063 4.687l2.012-.621 2.675-.817 2.637-.808c2.546-.717 5.076-1.272 7.676-1.754v2h-4v2c-4.763.953-9.167 1.083-14 1-.312-2.312-.312-2.312 0-5 4.079-3.307 4.079-3.307 8-2"/><path fill="#dcaf92" d="m71 251 1 3a249 249 0 0 1-3 4l-.375 2.625L68 263c-2.5 1.188-2.5 1.188-5 2l-1 2c.895-6.132 1.867-10.022 7-14h2z"/><path fill="#d7aa8c" d="M91 207c3.282 2.418 5.494 4.19 7 8 .23 2.254.23 2.254.188 4.563l-.02 2.316C98 224 98 224 97 227h-2l-.113-2.668-.2-3.52-.175-3.48c-.538-3.498-1.581-5.417-3.512-8.332z"/><path fill="#efc3a5" d="m159 196 2 2c-5.5 5-5.5 5-10 5l-1 2q-2.594.04-5.187.063l-2.918.035c-2.75-.093-5.22-.477-7.895-1.098v-2l3.035.105c9.853.285 9.853.285 18.965-3.105l3-1z"/><path fill="#523f2f" d="M220 141q2.514.428 5 1v4a755 755 0 0 1-20-2v-1l3.027-.184 3.91-.254c1.288-.08 2.576-.162 3.903-.246 3.02.035 3.02.035 4.16-1.316"/><path fill="#8e644e" d="m173 140 5 1v3l20 1v1l-2.957.184-3.856.254c-1.264.08-2.529.162-3.832.246-3.347.188-3.347.188-6.355 1.316-2.043-.559-2.043-.559-4.187-1.437l-2.168-.872L173 145z"/><path fill="#6f5341" d="M58 323h4l1 3 2.5 2.5C68 331 68 331 69 334c2.015.733 2.015.733 4 1v2c-6.063-1.962-10.247-5.352-13.375-10.812z"/><path fill="#cfa285" d="m185 234 6 2 1 6h-2a141 141 0 0 0-5 5l-3-1 4-1 .063-3.812.035-2.145c-.015-2.246-.015-2.246-1.098-5.043m9 4 2 1-3 3c0-3 0-3 1-4"/><path fill="#b18362" d="M272 189c0 4.182-1.895 6.621-4.469 9.832-1.689 2.391-2.676 4.687-3.719 7.418l-1.042 2.703L262 211c-1.175-3.524-.758-4.899.188-8.437l.73-2.872c1.221-3.038 2.564-4.623 5.082-6.691h2z"/><path fill="#b18975" d="m91 129 2 2 2-2c2.688-.27 5.291-.087 8 0v2l-7 1v2h-3l-1 4h-2c-.125-6.75-.125-6.75 1-9"/><path fill="#9d6e4e" d="M187 254v3l-3.437.875L180 259l-1 2a78 78 0 0 1-5 2l-1-4c2.963-2.524 5.177-3.396 9-4 2-1 2-1 5-1"/><path fill="#1b1610" d="M265 171h2c-.55 6.048-1.904 11.306-4 17l-4-1h2l-.625-1.875L260 183l2-2c.64-2.164.64-2.164 1.063-4.562.84-4.34.84-4.34 1.937-5.438"/><path fill="#594232" d="m112 95 1 2-10 1 1 4c-3.75 3-3.75 3-6 3 .29-3.394 1.023-5.031 3.063-7.812 3.978-2.963 6.08-2.6 10.937-2.188"/><path fill="#c59679" d="M129 294h13c1.125 5.625 1.125 5.625-.437 9.313l-.872 2.113L140 307h-2l.781-6.055c.256-1.95.256-1.95.219-3.945l-10-1z"/><path fill="#b08161" d="M177 255h-3v2h-3l-1 3c-2.405 1.203-3.95 1.1-6.625 1.063l-2.477-.028L159 261c2.858-2.303 5.604-3.863 9-5.25l2.563-1.078c2.626-.724 3.91-.585 6.437.328"/><path fill="#d0a281" d="M164 226c2.25.25 2.25.25 4 1l-3 1-1.8 2.012c-4.125 3.728-9.87 2.963-15.2 2.988-3.055-.184-5.97-.538-9-1v-1l1.864-.028c2.796-.054 5.59-.138 8.386-.222l2.934-.043c5.62-.066 5.62-.066 10.347-2.77z"/><path fill="#18191c" d="M101 61h1c.493 5.095-1.316 9.29-3 14q-.85 2.53-1.687 5.063L96 84h-2c.576-5.095 1.711-9.471 3.5-14.312l1.344-3.676C100 63 100 63 101 61"/><path fill="#ae8366" d="M189 77c4.508 1.258 7.491 2.904 11 6l1-4h2c.125 2.375.125 2.375 0 5l-2 2c-3.62-.304-5.62-2.124-8.25-4.5l-2.14-1.906L189 78z"/><path fill="#b48c70" d="M143 317h1c-.75 6.625-.75 6.625-3 10h-2v4l-4 1v2h-6c1-2 1-2 3.125-3.125 4.383-2.858 8.983-7.014 10.578-12.129z"/><path fill="#d7aa8a" d="m179 235-1.605.519c-2.404.78-4.806 1.568-7.208 2.356l-2.525.816-2.432.801-2.237.73c-2.256.799-2.256.799-4.993 2.778-2.187-.375-2.187-.375-4-1l1.938-.875c2.214-.953 2.214-.953 3.062-3.125 2.61-.834 5.156-1.544 7.813-2.187l2.197-.577c3.721-.922 6.333-1.368 9.99-.236"/><path fill="#a9836a" d="M266 177h2l1 6 3-1c-1.015 2.536-1.685 3.794-4 5.313l-2 .687-2-1c.875-7.75.875-7.75 2-10"/><path fill="#966748" d="M283 176c-1 3-1 3-2.594 4.063l-3.812 1.875c-1.932 1.051-1.932 1.051-2.594 4.062h-2l-1 3c-.75-1.625-.75-1.625-1-4 1.903-3.886 3.698-6.142 7.625-7.875C281 176 281 176 283 176"/><path fill="#241f19" d="M259 139h2c2.261 7.914 2.67 14.816 1 23l-2 1 .035-2.965c.049-7.09-.048-14-1.035-21.035"/><path fill="#cea48a" d="M173 69c5.248.456 8.12 2.169 12.25 5.375l3.14 2.398C191 79 191 79 193 82c-4.268-2.073-8.23-4.552-12.25-7.062l-2.258-1.393-2.133-1.33L174.405 71 173 70z"/><path fill="#1c1615" d="m225.066 74.902 2.496.035 2.504.028L232 75c-1.613 2.712-3.249 5.374-5 8h-2v-2h-2a88 88 0 0 1-1-5c1-1 1-1 3.066-1.098"/><path fill="#9c6c4f" d="m154 259 1 2c3.03.658 3.03.658 6 1v2h-9l-1-3-2.75 1.063c-3.256.939-4.177.892-7.25-.063 8.429-3.429 8.429-3.429 13-3"/><path fill="#bb8b6d" d="M85 179h2c.106 6.245.105 11.412-3 17-1-1-1-1-1.125-4.625.13-10.38.13-10.38 2.125-12.375"/><path fill="#e6cebd" d="m116 155 1 2 17-1-1 2c-3.763 1.254-7.272 1.107-11.187 1.063l-2.272-.014q-2.77-.02-5.541-.049l-1-3z"/><path fill="#88644b" d="m204.04 143.805 3.585.07 3.602.055L214 144v4c-1.75.054-3.5.093-5.25.125l-2.953.07c-2.817-.196-4.406-.75-6.797-2.195 2-2 2-2 5.04-2.195"/><path fill="#9e795e" d="M131 143c4 0 4 0 5.75 1.125 1.825 2.737 1.652 4.66 1.25 7.875-1.5 1.875-1.5 1.875-3 3z"/><path fill="#88624d" d="m232 75 3 1h-2l.25 2.813C233 82 233 82 231.313 83.875c-2.646 1.287-4.407 1.367-7.313 1.125v-2h3l.813-1.75c1.204-2.283 2.595-4.224 4.187-6.25"/><path fill="#9d7050" d="M138.313 311.313 140 312l-3 2 4 1c-4.524 2.043-9.164 3.01-14 4l2-3h2v-2c4.153-3.115 4.153-3.115 7.313-2.687"/><path fill="#d9b092" d="m130 308-5 2v2c-4.23 2.417-7.123 3.348-12 3 1.504-3.008 3.851-3.68 6.813-5.187l3.207-1.668c3.011-1.157 4.068-1.365 6.98-.145"/><path fill="#c79775" d="m54 274 2 1-.992 2.941c-1.246 4.36-1.233 8.493-1.133 12.997l.027 2.36c.024 1.901.06 3.802.098 5.702-1.688-2.952-2.256-5.085-2.266-8.477l-.007-2.53.023-2.618-.023-2.64.007-2.524.007-2.303C52 276 52 276 54 274"/><path fill="#b0856b" d="M98 227c1.125 3.75 1.125 3.75 0 6-.515 5.164-1.017 10.242 2 14.688l2 2.312c-2.938-.304-3.84-.807-5.75-3.125-2.981-6.857-.518-13.167 1.75-19.875"/><path fill="#976a49" d="M232 235c-2.557 2.983-5.524 4.262-9 6-1.816 1.561-1.816 1.561-3 3l-3-2c5.033-5.313 7.605-7.336 15-7"/><path fill="#c59e80" d="M105 91h4v2h5v3l8 1 1 4c-3.834-1.438-7.416-3.198-11.035-5.098-1.949-.987-1.949-.987-4.149-1.336L106 94z"/><path fill="#3c3127" d="m107 66 3 1-1.172 1.688C105.446 73.644 102.564 78.575 100 84h-1c.497-4.973 1.553-8.638 4-13h2z"/><path fill="#cfa084" d="M137 317h5c.703 1.742.703 1.742 1 4-1.328 2.07-1.328 2.07-3.25 4.125l-1.89 2.07C136 329 136 329 133 331c.984-2.195 1.779-3.797 3.563-5.437 1.89-2.055 2.07-3.843 2.437-6.563h-2z"/><path fill="#bab3af" d="m78 181 2 1-1 17h-2l.125-3.312c.196-3.777.196-3.777-2.125-6.688.375-2.687.375-2.687 1-5h2z"/><path fill="#d0a280" d="M136 175c0 2.628-.198 5.082-.5 7.688l-.281 2.449L135 187l3 1-2 1-3-1v-2h-2l1-7h2z"/><path fill="#b8967c" d="m139 58 3.375.438c2.45.315 4.886.583 7.348.78l2.714.22 2.56.183L157 60l1 2c-6.11.113-11.952-.104-18-1z"/><path fill="#d5aa8c" d="m128 262 3 1-1.937 1.75c-2.404 2.263-2.404 2.263-3.063 6.25l9 2v1c-4.245.333-6.355.439-9.937-2L123 270c.542-3.796 2.201-5.472 5-8"/><path fill="#e2b499" d="M94 227h1l-.219 1.8c-.72 6.426-.892 12.738-.781 19.2l-3 1v-14h2z"/><path fill="#c0987e" d="m131 107 5 2 1-2c1.245 2.49.777 3.41 0 6h2v5a109 109 0 0 1-7-1l-1-2h4v-5l-4-2z"/><path fill="#ba896b" d="M138 227c2.92.017 5.723.14 8.625.375l2.43.172c1.982.141 3.964.296 5.945.453l1 2c-13.633.185-13.633.185-20-1z"/><path fill="#ebbd9d" d="M135 180h3l-1 4 8 1 1-3 1 3-2 3c-3.947.43-6.612.085-10-2z"/><path fill="#857c6b" d="M202.125 162.875 205 163v3c-3.445 2.296-5.938 2.54-10 3 2.777-5.951 2.777-5.951 7.125-6.125"/><path fill="#e3e0d6" d="M209 151c4.535 1.134 5.9 2.642 9 6h-7v3h-2z"/><path fill="#d19f7f" d="M91 143h2c1.98 2.97 2.294 3.657 2.313 7l.05 2.063C95 154 95 154 92 157v-10l-2-1z"/><path fill="#86664a" d="M79 189c2.532 2.532 2.43 3.858 2.75 7.375l.297 2.898c-.05 2.856-.566 4.323-2.047 6.727l-2-1 1-5-2-1h2z"/><path fill="#645339" d="m197 165-2 4h-8l-1-3c3.77-2.564 6.674-1.832 11-1"/><path fill="#7e6955" d="M212 151c3.588 1.333 6.836 2.83 10 5v2l3 1v5l-2-2.062c-2.99-3.007-6.197-5.74-9.426-8.485L212 152z"/><path fill="#a07152" d="M170 141h3v4l7 1-4 1v3c-4.875-1.875-4.875-1.875-6-3-.04-2-.043-4 0-6"/><path fill="#ae8872" d="m111 101 2 2-8 1 1 2-6 1c.313-1.875.313-1.875 1-4 3.673-2.449 5.664-2.315 10-2"/><path fill="#cb9e82" d="m77 206 1 2 3 1c1.403 5.77.673 11.181 0 17h-1v-13h-3z"/><path fill="#926b4d" d="M81 150h1l1 8h2l1-2c-.48 4.714-.968 8.666-3 13h-1c-1.153-6.342-1.095-12.567-1-19"/><path fill="#b28769" d="m167 135 1 3c2.504 1.219 2.504 1.219 5 2l-3 2c-.724 2.06-.724 2.06-1 4h-2v-3h-2v-5h2z"/><path fill="#ad8165" d="M94 103c1.179 4.248 2.033 8.935 0 13 .009 2.569.131 5.122.258 7.688L94 126l-3 2c.397-8.52.782-16.72 3-25"/><path fill="#a37f6a" d="M203 68c2.343.256 4.678.593 7 1l1 2h-5l-1 6h-2z"/><path fill="#363539" d="m156.75 3.75 2.691.055q3.281.07 6.559.195v1c-1.862.2-1.862.2-3.762.402l-4.925.535-2.475.264c-3.993.437-7.915.912-11.838 1.799 3.66-5.222 7.954-4.473 13.75-4.25"/><path fill="#c89c7e" d="m136 307 2 1c-1.444 2.888-3.249 3.007-6.25 4.063l-2.89 1.035c-2.615.825-5.164 1.425-7.86 1.902 3.217-4.24 6.921-5.094 11.855-6.387 2.109-.415 2.109-.415 3.145-1.613"/><path fill="#171612" d="M267 161h7c-1.25 3.653-1.671 4.78-5 7l-2 3z"/><path fill="#a58269" d="m247 90 6 2 1 9-1-3-1.937-.437C249 97 249 97 247.75 95.125 247 93 247 93 247 90"/><path fill="#18181b" d="M166 1v1l-3.36.367-4.39.508-2.21.238C152.281 3.557 149.292 4.136 146 6c-2.75.125-2.75.125-5 0 7.198-6.334 15.98-5.225 25-5"/><path fill="#ab7d5e" d="M206 244c-.797.38-.797.38-1.61.77-3.722 1.813-7.188 3.561-10.39 6.23-.625-1.875-.625-1.875-1-4 3.642-3.642 8.166-4.501 13-3"/><path fill="#d7ab8c" d="m85.688 203.875 2.449.055L90 204l-1 3-7-1v6c-1.952-1.952-2.848-3.532-4-6 3.204-2.136 4.02-2.231 7.688-2.125"/><path fill="#cea181" d="m285 184-5 5-2.187 2.313C276 193 276 193 274 193l2-4 1-2.187c1.893-3.431 4.426-2.907 8-2.813"/><path fill="#e8e0d5" d="m208 160 1 4 11 1c-2 2-2 2-4.82 2.195l-3.305-.07-3.32-.055L206 167c.875-4.75.875-4.75 2-7"/><path fill="#2b2d30" d="M243 19c7.429-.286 7.429-.286 11 2v3l-8-1v-2l-3-1z"/><path fill="#7e5537" d="m203 253 1 5-5 1v-2h-4v-2c3.088-1.765 4.233-2 8-2"/><path fill="#c99b7b" d="m129 195 3.25 1.938c5.36 2.728 10.826 2.865 16.75 3.062v1c-13.633.185-13.633.185-20-1z"/><path fill="#442e24" d="M124 135c3.914 1.305 4.578 2.987 6.75 6.438l1.922 2.996L134 147l-1 2-1.46-1.934c-.633-.826-1.264-1.652-1.915-2.504l-1.898-2.496c-1.565-2.151-1.565-2.151-3.727-3.066z"/><path fill="#5d4836" d="M168 134q3.063.214 6.125.438l3.445.246c3.184.293 6.285.747 9.43 1.316v1c-2.062.054-4.125.093-6.187.125l-3.481.07c-3.25-.19-5.419-.801-8.332-2.195l-1 3z"/><path fill="#856a55" d="M96 91c1.307 4.297.66 7.602 0 12h-2l-.148 1.934-.227 2.504-.21 2.496L93 112l-2 1c.61-7.63 2.796-14.702 5-22"/><path fill="#af8062" d="M142 291c1.5 1.063 1.5 1.063 3 3 .494 5.136-.427 9.182-2 14h-1l.07-2.773.055-3.602.07-3.586c.134-3.15.134-3.15-2.195-5.039h2z"/><path fill="#140b06" d="M99 242a367 367 0 0 1 3.438 2.813l1.933 1.582C106 248 106 248 107 251c-3.062-.331-4.6-.6-6.812-2.812C99 246 99 246 99 242"/><path fill="#c29273" d="M64 319c2 2 2 2 2 6h3v3l3 1v2c-3 0-3 0-5.687-2.062-2.827-3.591-2.75-5.48-2.313-9.938"/><path fill="#ce9f82" d="m269 175 1 4 2.375-1.562L275 176l2 1-7 7-2-1c-.125-5.75-.125-5.75 1-8"/><path fill="#9f7b64" d="M289 174c2 2 2 2 2.266 4.496l-.016 2.941.016 2.934C291 187 291 187 289 190l1-12-3 2-3-1h2l.938-1.937C288 175 288 175 289 174"/><path fill="#caa68b" d="M237 81c2.375.25 2.375.25 5 1 1.313 2.063 1.313 2.063 2 4l-2.812-.125c-3.346-.146-3.346-.146-6.188 2.125 0-3.106.54-4.353 2-7"/><path fill="#9c735f" d="M158 61c1.897.088 3.792.196 5.688.313l3.199.175c3.372.555 5.392 1.467 8.113 3.512v2l-1.941-.586A924 924 0 0 0 158 62z"/><path fill="#d8aa8c" d="M78 235h1c.298 8.787.298 8.787-2 13l-2 1v-6h2l-.062-3.437C77 236 77 236 78 235"/><path fill="#d0a583" d="M93 237h1v7l4 2-1 4-2-1-1 2c-.936-3.155-1.106-5.966-1.062-9.25l.027-2.703z"/><path fill="#bd987a" d="M216 146h9l-3 1v2l2 1-1 1c-2.69-.176-5.329-.618-8-1l3-2z"/><path fill="#816045" d="M84 136h1l1 12-2-1v-2h-2c-.25-5.625-.25-5.625 2-9"/><path fill="#d3a489" d="M107 123c1.938.813 1.938.813 4 2l1 3-13 1 1-2h7z"/><path fill="#eac2a7" d="M185 78c3.34.596 5.505 1.683 8 4v3h-6v-4l-2-1z"/><path fill="#251b16" d="m122 55-2 1-1 3-5 1v-5c2.862-1.43 4.934-.6 8 0"/><path fill="#141415" d="M283 49h2l1 7a328 328 0 0 1-3.875 1.563l-2.18.878C278 59 278 59 276 58c2.647-1.46 3.894-2 7-2z"/><path fill="#e5ba9c" d="M139 276h3c0 5.251 0 5.251-1 8-2.426 1.989-4.965 3.212-8 4l-2-1c5.75-4 5.75-4 8-4z"/><path fill="#a18271" d="m61 259 3 1-2 4h-2v2c-1.375 1.625-1.375 1.625-3 3h-2c1.37-3.995 3.257-6.8 6-10"/><path fill="#d1a483" d="m142 142 4 2-1 3a100 100 0 0 0 0 5l-3 1z"/><path fill="#614838" d="m98 132 2 1v3h-2l-.937 1.875L95 142h-2c-.312-2.187-.312-2.187 0-5 2.5-2.812 2.5-2.812 5-5"/><path fill="#c59d7e" d="M205 75c1.124 3.304.896 5.05-.437 8.25l-.872 2.14L203 87c-2.875.188-2.875.188-6 0l-2-3 2.938.563L201 85c1.968-1.968 1.662-5.348 2-8h2z"/><path fill="#2f3033" d="M167 5c8.035-.788 8.035-.788 12.063 2.5L181 10c-4.847-.782-9.377-2.398-14-4z"/><path fill="#c79978" d="M137 247c-5.09 2.054-9.545 3.432-15 4 2.411-3.115 4.234-4.29 8.063-4.812C134 246 134 246 137 247"/><path fill="#c49978" d="M289 171v3c-7.625 1-7.625 1-11 1 3.042-4.562 5.853-4.114 11-4"/><path fill="#a6876f" d="m111 64 1 3-1 2h-2l-1 6-4-1z"/><path fill="#cfa07e" d="M53 282h1l1 7h2q-.172 2.22-.375 4.438l-.21 2.496L56 298l-2 1z"/><path fill="#895f40" d="M185 259v4h-10l1-2c6.111-2 6.111-2 9-2"/><path fill="#eec0a5" d="M186 235c.125 6.75.125 6.75-1 9l-4-1 1.5-1.312c1.832-1.685 1.832-1.685 1.5-4.688h-7c3.435-2.29 4.985-2.178 9-2"/><path fill="#b9856d" d="M144 220c5.419-.226 9.775.533 15 2l-2 2c-3.04-.242-3.04-.242-6.625-.875l-3.602-.617L144 222z"/><path fill="#ba8e6e" d="m156 188 1 10h-2v-5h-5c4.875-5 4.875-5 6-5"/><path fill="#c59777" d="M285 182v2l-7 1-.875 2.438C276 190 276 190 274 191c.288-3.458.79-4.784 3.25-7.312 2.95-1.811 4.365-2.075 7.75-1.688"/><path fill="#d6d2cf" d="m194 147-1 4-4 1-2-4c2.463-1.231 4.28-1.072 7-1"/><path fill="#e6e3e1" d="M107 133h5l1 4-5 1z"/><path fill="#a87d64" d="m233 76 4 1-2 1a127 127 0 0 0-2 6l-1 2h-7l1.813-.875c2.38-1.172 2.38-1.172 5.187-3.125.733-3.066.733-3.066 1-6"/><path fill="#956947" d="M184 71c2.293-.25 2.293-.25 5 0 1.8 1.75 1.8 1.75 3.313 4l1.55 2.25L195 79c-2.962-.613-4.38-1.254-7-3v-3h-4z"/><path fill="#bc8a6c" d="M142 299c1.471 3.825.454 6.283-1 10l-1 2h-3c.375-1.937.375-1.937 1-4l2-1c.73-2.314 1.401-4.648 2-7"/><path fill="#896045" d="m172 261 3 2-1 3-10-1z"/><path fill="#5a4235" d="M257 220h15c-3 3-3 3-5.156 3.145l-2.344-.333-2.344-.292C260 222 260 222 257 220"/><path fill="#e0ccbe" d="m181 163 5 5-1 3c-3-1-3-1-4.25-2.875C180 166 180 166 181 163"/><path fill="#3c3526" d="M260 148h1l-1 17h-2l-1 2 .434-2.57a885 885 0 0 0 1.628-10.305l.536-3.492z"/><path fill="#e2bca4" d="m211 76 7 2 1 5h-2v-2l-1.875-.25C213 80 213 80 211.75 77.938z"/><path fill="#8a654a" d="M202 73h1v6h-2l-1 4c-3.875-1.75-3.875-1.75-5-4l2.938-.75L201 77c.969-2.032.969-2.032 1-4"/><path fill="#9e7050" d="M105 243h3v3l4 1 1 5h-5l1-5h-2v-2h-2z"/><path fill="#ae7b61" d="m133.438 212.688 2.37-.051C138 213 138 213 141 216l-14-1c2.415-2.415 3.127-2.296 6.438-2.312"/><path fill="#9c7557" d="m251 179 2 2 2-1 1 7-5 1z"/><path fill="#bb8d6e" d="m290 178-1 4q-2.156.253-4.312.5l-2.426.281C280 183 280 183 277 183c3.968-2.568 8.154-5 13-5"/><path fill="#1b1d1e" d="M93 84h1c1.25 7.625 1.25 7.625-1 11-.39 1.99-.732 3.99-1 6h-1c-.218-6.002.494-11.192 2-17"/><path fill="#231714" d="m202 67 2 1-2 9-4-1 2-1v-6h2z"/><path fill="#674e3d" d="M170 62a225 225 0 0 1 4.75-.187l2.672-.106c3.025.344 4.334 1.295 6.578 3.293-5.192.212-9.127-.409-14-2z"/><path fill="#9c7056" d="M69 332c3.012.644 5.517 1.65 8.25 3.063l2.14 1.097L81 337c-2.903 1.452-4.909.723-8 0l-1-2-3-1z"/><path fill="#695340" d="m139 329 3 1c-3.564 3.15-6.407 5.514-11 7v-3h4v-2l4-1z"/><path fill="#a97d5c" d="M141 267c-1 3-1 3-3 4-2 .04-4 .043-6 0 2.749-4.123 4.105-4 9-4"/><path fill="#b5886a" d="M189 239h1v6h3v2l-4 2-1-2-3-1 3-2c.73-2.563.73-2.563 1-5"/><path fill="#a97c5a" d="M155 193v6l-3-1 1-3h-8v-1c3.406-.778 6.508-1.1 10-1"/><path fill="#937059" d="m263 185 2 4h-2l-1 3-3-1v-2l-3-1c3.133-1.044 3.99-.934 7 0z"/><path fill="#18120d" d="M280 159c1.044 3.133.934 3.99 0 7l-4-1-1-4h4z"/><path fill="#e7bb9b" d="M219 84c3.83 1.453 5.12 3.429 7 7-4.75-.75-4.75-.75-7-3z"/><path fill="#ecc0a8" d="M171 71c5.367-.839 8.796 2.08 13 5-1.844.582-1.844.582-4 1-2.5-1.312-2.5-1.312-5-3a174 174 0 0 0-4-2z"/><path fill="#8f6344" d="m172 63 6 2v2l1.875.313C182 68 182 68 184 71h-3v-2l-6-2v-2l-3-1z"/><path fill="#986a4d" d="M142 291v2c-7.429 2.429-7.429 2.429-11 1 3.833-2.706 6.325-3.326 11-3"/><path fill="#5b4437" d="m255 219 2 3-8 6-1-3h3l1-4h3z"/><path fill="#826c5d" d="M281 207c0 4.032-1.641 5.809-4 9l-2 1 1-5 3-1v-3z"/><path fill="#1c150c" d="m107 147 6.055.879c2.026.29 2.026.29 3.945-.879l2 2c-2.917 1.984-4.124 1.988-7.75 1.625L108 150z"/><path fill="#e6e0da" d="M126 141h2c1.625 2.5 1.625 2.5 3 5l-5 2c-1.333-2.667-.671-4.167 0-7"/><path fill="#cd9e80" d="M131 58v1l-3.187.313c-3.716.67-5.713 1.65-8.813 3.687h-2v-3c4.648-2.4 8.91-2.2 14-2"/><path fill="#544030" d="M147 293c2.194 3.291 2.215 3.848 1.75 7.563l-.266 2.378C148 305 148 305 146 307c-.125-6.625-.125-6.625 1-10z"/><path fill="#564131" d="M175 263h11c-4.398 2.2-7.186 2.519-12 3z"/><path fill="#e9bda0" d="m159 196 2 2c-5.17 4.923-5.17 4.923-9.375 5.313L149 203l1.75-.812c2.307-1.139 2.307-1.139 4.375-2.813C157 198 157 198 159 198z"/><path fill="#8d6c58" d="M270 166h2v3l-2 1a129 129 0 0 0-2 7h-2q.425-2.19.875-4.375l.492-2.46C268 168 268 168 270 166"/><path fill="#76654d" d="m117 151-4 1v2l-7-1c2.916-2.916 7.208-3.896 11-2"/><path fill="#b7957c" d="m252 98 1 3h2v10c-2.073-4.147-3.04-7.495-4-12z"/><path fill="#5a4739" d="m122 101 4 2v2h-3v2c-2.437-.375-2.437-.375-5-1l-1-2 5 1z"/><path fill="#0c1215" d="M212 67h2l2 2h3v4h-4v-2h-2z"/><path fill="#daad8d" d="m57 274 2 1c.25 2.25.25 2.25 0 5-2 2.313-2 2.313-4 4 .458-3.47.891-6.674 2-10"/><path fill="#c89c7d" d="M171 252a345 345 0 0 1-3.75 1.5l-2.11.844C163 255 163 255 159 255v-2c8.036-2.277 8.036-2.277 12-1"/><path fill="#af927e" d="M74 243h1v7l-4 1c.547-3.375 1.055-5.082 3-8"/><path fill="#dadcd0" d="M124 148c0 3 0 3-1 5h2v2h-7z"/><path fill="#494033" d="M187 148v2l-3 1-1 3-3 1-2-2a466 466 0 0 1 3.375-2.5l1.898-1.406C185 148 185 148 187 148"/><path fill="#edbfa7" d="M208 75h2q-.425 2.19-.875 4.375l-.492 2.46C208 84 208 84 206 86c-.286-7.429-.286-7.429 2-11"/><path fill="#a07354" d="m202 245 2 1c-2.834 3.254-4.686 4.52-9 5 3.625-4.875 3.625-4.875 7-6"/><path fill="#7b5639" d="m98 237 1 2h3l1 6-5-2z"/><path fill="#786e63" d="M124 144h2c-1.875 4.875-1.875 4.875-3 6-2 .04-4 .043-6 0 3.625-3 3.625-3 7-3z"/><path fill="#bd8f6b" d="m91 129 3 3-2 6h-2c-.125-6.75-.125-6.75 1-9"/><path fill="#b08f7c" d="m113 96 9 1 1 4-10-4z"/><path fill="#e0b698" d="M128.375 307.313 130 308c-3.663 2.478-6.61 3.49-11 4 1.772-3.544 5.502-5.197 9.375-4.687"/><path fill="#ad7960" d="M150 218c1.437-.081 2.874-.14 4.313-.187l2.425-.106c2.74.355 3.554 1.187 5.262 3.293-4.03-.553-8.02-1.156-12-2z"/><path fill="#a68063" d="M82 145h2l2 8-2 1c-2.29-3.435-2.178-4.985-2-9"/><path fill="#f9faf5" d="m130 146 1 4c-3.75 1.125-3.75 1.125-6 0l1-3c2.063-.687 2.063-.687 4-1"/><path fill="#1e1e1e" d="m137 7 2 1c-1.125 1.938-1.125 1.938-3 4-3.187.75-3.187.75-6 1 2.257-2.335 4.28-4.187 7-6"/><path fill="#d9a88b" d="M164 226c2.125.375 2.125.375 4 1l-3 1-1.937 2.125L161 232c-2.25-.25-2.25-.25-4-1l2.375-1.375c2.662-1.51 2.662-1.51 4.625-3.625"/><path fill="#d5a98b" d="m274 201 1 2c-1.375 2-1.375 2-3 4h-2c.313-1.875.313-1.875 1-4zm-6 6 2 1h-3z"/><path fill="#936544" d="M147 195h6l-1 4h-5l2-2z"/><path fill="#796550" d="m197 166-2 3-5-1v-2c3.133-1.044 3.99-.934 7 0"/><path fill="#cfc9c1" d="M178 154h2v6l-3-1-2 1c1.875-4.875 1.875-4.875 3-6"/><path fill="#f0cdac" d="m105 152 7 3-2 3-3-1v-2h-2z"/><path fill="#71523c" d="M196 143h9c-2 3-2 3-4.625 3.688L198 147v-3z"/><path fill="#9b735e" d="M57 316c2 1 2 1 3.125 4.063L61 323l-4-1z"/><path fill="#614836" d="M146 307c-1.074 2.915-1.778 4.778-4 7-1-3-1-3 0-6 2-1 2-1 4-1"/><path fill="#c59573" d="m54 299 4 3-1 5-2-1v-2l-2-1z"/><path fill="#d9ab8f" d="m131.066 295.902 2.496.036 2.504.027L138 296c-2.624 1.75-3.965 2.62-7 3l-3-2c1-1 1-1 3.066-1.098"/><path fill="#574334" d="M207 253h6c-2.938 2.503-5.179 3.47-9 4v-2h3z"/><path fill="#966746" d="M242 225c0 3 0 3-2 6l-4-1c1.933-2.025 3.632-3.421 6-5"/><path fill="#bb8a6e" d="M161 223c2.343.256 4.678.593 7 1l1 2h-10z"/><path fill="#f5c7a8" d="M85 206h4v4l-3 1z"/><path fill="#251914" d="m255 181 3 1 1 5h-3z"/><path fill="#a18e78" d="M197 165h5c-2 3-2 3-4.625 3.688L195 169z"/><path fill="#443a22" d="M185 156c2 3 2 3 2 5l-5 1c.375-2.437.375-2.437 1-5z"/><path fill="#42392b" d="M105 137v7l-1-3-4 1c1.667-5 1.667-5 5-5"/><path fill="#150301" d="M103.688 130.75 106 131v2l-8 2c2.338-3.938 2.338-3.938 5.688-4.25"/><path fill="#b59176" d="M102 102h2v3l2 1-6 1c.875-3.875.875-3.875 2-5"/><path fill="#1a0c06" d="M185 65h6l1 5c-2.884-1.293-4.872-2.66-7-5"/><path fill="#303032" d="M237 5c2.375-.187 2.375-.187 5 0l2 3-4 1V7l-3-1z"/></svg>