<?xml version="1.0" encoding="UTF-8"?>
<svg id="Layer_2" data-name="Layer 2" xmlns="http://www.w3.org/2000/svg" viewBox="0 0 1074.24 905.56">
  <defs>
    <linearGradient id="heroGradient" x1="0%" y1="0%" x2="100%" y2="0%">->
      <stop offset="0%" style="stop-color:rgba(147, 205, 131, 1);stop-opacity:1" />
      <stop offset="100%" style="stop-color:rgba(116, 162, 103, 1);stop-opacity:1" />
    </linearGradient>
  </defs>
  <path fill="url(#heroGradient)" d="M87.89,883.82c100.22,53.76,184.51-3.98,212.38-45.79,65.71-109.51,5.09-191.14,5.09-191.14-38.49-104.42,43.14-117.69,82.07-117.8,23.93-.07,408.84-.78,408.84-.78,0,0,63.05-9.73,66.59-68.14,3.54-58.41-39.38-74.55-39.38-74.55-77.87-34.95-103.76-157.77-38.72-201.32,102.43-68.58,154.5,35.46,154.5,35.46,17.77,40.49,47.67,46.97,82.88,38.65,26.19-6.18,47.11-30.58,52.09-61.06V30.66c-7.65-.81-286.65-105.21-363,75.97-47.61,112.99-150.73,155.97-150.73,155.97,0,0-180.4,74.27-319.25,31.55C108.14,253.19,8.54,263.49.54,264.41v568.96s-12.86-3.32,87.36,50.44Z"/>
</svg>
